<?xml version="1.0" encoding="utf-8"?>
<!-- Generator: Adobe Illustrator 16.0.4, SVG Export Plug-In . SVG Version: 6.00 Build 0)  -->
<!DOCTYPE svg PUBLIC "-//W3C//DTD SVG 1.1//EN" "http://www.w3.org/Graphics/SVG/1.1/DTD/svg11.dtd">
<svg version="1.1" id="Layer_1" xmlns="http://www.w3.org/2000/svg" xmlns:xlink="http://www.w3.org/1999/xlink" x="0px" y="0px"
	 width="622.5px" height="146.208px" viewBox="0 0 622.5 146.208" enable-background="new 0 0 622.5 146.208" xml:space="preserve">
<g>
	<g>
		<path fill="#FFFFFF" d="M324.516,112.939h13.919l-2.016,13.631h-14.015L324.516,112.939z M347.842,112.939h14.017l-2.112,13.631
			H345.73L347.842,112.939z M371.169,112.939h14.015l-2.111,13.631h-14.016L371.169,112.939z"/>
	</g>
	<g>
		<g>
			<defs>
				<rect id="SVGID_1_" x="10.5" y="4.569" width="607" height="190"/>
			</defs>
			<clipPath id="SVGID_2_">
				<use xlink:href="#SVGID_1_"  overflow="visible"/>
			</clipPath>
		</g>
		<g>
			<defs>
				<rect id="SVGID_3_" x="10.5" y="4.569" width="607" height="190"/>
			</defs>
			<defs>
				<path id="SVGID_4_" d="M126.493,20.5c-4.415,0-7.993,3.591-7.993,7.994v89.22c0,4.414,3.576,7.994,7.993,7.994h66.014
					c4.415,0,7.993-3.592,7.993-7.994v-89.22c0-4.415-3.576-7.994-7.993-7.994H126.493L126.493,20.5z"/>
			</defs>
			<clipPath id="SVGID_5_">
				<use xlink:href="#SVGID_3_"  overflow="visible"/>
			</clipPath>
			<clipPath id="SVGID_6_" clip-path="url(#SVGID_5_)">
				<use xlink:href="#SVGID_4_"  overflow="visible"/>
			</clipPath>
		</g>
		<g>
			<defs>
				<rect id="SVGID_7_" x="10.5" y="4.569" width="607" height="190"/>
			</defs>
			<defs>
				<path id="SVGID_8_" d="M126.493,20.5c-4.415,0-7.993,3.591-7.993,7.994v89.22c0,4.414,3.576,7.994,7.993,7.994h66.014
					c4.415,0,7.993-3.592,7.993-7.994v-89.22c0-4.415-3.576-7.994-7.993-7.994H126.493L126.493,20.5z"/>
			</defs>
			<defs>
				<path id="SVGID_9_" d="M98,0h123v146.208H98V0z M126.493,20c-4.687,0-8.493,3.811-8.493,8.494v89.22
					c0,4.691,3.801,8.494,8.493,8.494h66.014c4.687,0,8.493-3.811,8.493-8.494v-89.22c0-4.692-3.801-8.494-8.493-8.494H126.493
					L126.493,20z M126.493,21h66.014c4.14,0,7.493,3.354,7.493,7.494v89.22c0,4.132-3.359,7.494-7.493,7.494h-66.014
					c-4.14,0-7.493-3.354-7.493-7.494v-89.22C119,24.363,122.359,21,126.493,21L126.493,21z"/>
			</defs>
			<clipPath id="SVGID_10_">
				<use xlink:href="#SVGID_7_"  overflow="visible"/>
			</clipPath>
			<clipPath id="SVGID_11_" clip-path="url(#SVGID_10_)">
				<use xlink:href="#SVGID_8_"  overflow="visible"/>
			</clipPath>
			<clipPath id="SVGID_12_" clip-path="url(#SVGID_11_)">
				<use xlink:href="#SVGID_9_"  overflow="visible"/>
			</clipPath>
		</g>
		<g>
			<defs>
				<rect id="SVGID_13_" x="10.5" y="4.569" width="607" height="190"/>
			</defs>
			<defs>
				<path id="SVGID_14_" d="M126.493,20.5c-4.415,0-7.993,3.591-7.993,7.994v89.22c0,4.414,3.576,7.994,7.993,7.994h66.014
					c4.415,0,7.993-3.592,7.993-7.994v-89.22c0-4.415-3.576-7.994-7.993-7.994H126.493L126.493,20.5z"/>
			</defs>
			<defs>
				<path id="SVGID_15_" d="M98,0h123v146.208H98V0z M126.493,20c-4.687,0-8.493,3.811-8.493,8.494v89.22
					c0,4.691,3.801,8.494,8.493,8.494h66.014c4.687,0,8.493-3.811,8.493-8.494v-89.22c0-4.692-3.801-8.494-8.493-8.494H126.493
					L126.493,20z M126.493,21h66.014c4.14,0,7.493,3.354,7.493,7.494v89.22c0,4.132-3.359,7.494-7.493,7.494h-66.014
					c-4.14,0-7.493-3.354-7.493-7.494v-89.22C119,24.363,122.359,21,126.493,21L126.493,21z"/>
			</defs>
			<defs>
				<rect id="SVGID_16_" x="10.5" y="-597.431" width="612" height="792"/>
			</defs>
			<clipPath id="SVGID_17_">
				<use xlink:href="#SVGID_13_"  overflow="visible"/>
			</clipPath>
			<clipPath id="SVGID_18_" clip-path="url(#SVGID_17_)">
				<use xlink:href="#SVGID_14_"  overflow="visible"/>
			</clipPath>
			<clipPath id="SVGID_19_" clip-path="url(#SVGID_18_)">
				<use xlink:href="#SVGID_15_"  overflow="visible"/>
			</clipPath>
			<clipPath id="SVGID_20_" clip-path="url(#SVGID_19_)">
				<use xlink:href="#SVGID_16_"  overflow="visible"/>
			</clipPath>
			<path clip-path="url(#SVGID_20_)" fill="#EAAB00" d="M126.493,20.5c-4.415,0-7.993,3.591-7.993,7.994v89.22
				c0,4.414,3.576,7.994,7.993,7.994h66.014c4.415,0,7.993-3.592,7.993-7.994v-89.22c0-4.415-3.576-7.994-7.993-7.994H126.493
				L126.493,20.5z"/>
		</g>
	</g>
	<g>
		<g>
			<defs>
				<rect id="SVGID_21_" x="10.5" y="4.569" width="607" height="190"/>
			</defs>
			<clipPath id="SVGID_22_">
				<use xlink:href="#SVGID_21_"  overflow="visible"/>
			</clipPath>
		</g>
		<g>
			<defs>
				<rect id="SVGID_23_" x="10.5" y="4.569" width="607" height="190"/>
			</defs>
			<defs>
				<path id="SVGID_24_" d="M126.493,20.5c-4.415,0-7.993,3.591-7.993,7.994v89.22c0,4.414,3.576,7.994,7.993,7.994h66.014
					c4.415,0,7.993-3.592,7.993-7.994v-89.22c0-4.415-3.576-7.994-7.993-7.994H126.493L126.493,20.5z"/>
			</defs>
			<clipPath id="SVGID_25_">
				<use xlink:href="#SVGID_23_"  overflow="visible"/>
			</clipPath>
			<clipPath id="SVGID_26_" clip-path="url(#SVGID_25_)">
				<use xlink:href="#SVGID_24_"  overflow="visible"/>
			</clipPath>
		</g>
		<g>
			<defs>
				<rect id="SVGID_27_" x="10.5" y="4.569" width="607" height="190"/>
			</defs>
			<defs>
				<path id="SVGID_28_" d="M126.493,20.5c-4.415,0-7.993,3.591-7.993,7.994v89.22c0,4.414,3.576,7.994,7.993,7.994h66.014
					c4.415,0,7.993-3.592,7.993-7.994v-89.22c0-4.415-3.576-7.994-7.993-7.994H126.493L126.493,20.5z"/>
			</defs>
			<defs>
				<rect id="SVGID_29_" x="10.5" y="-597.431" width="612" height="792"/>
			</defs>
			<clipPath id="SVGID_30_">
				<use xlink:href="#SVGID_27_"  overflow="visible"/>
			</clipPath>
			<clipPath id="SVGID_31_" clip-path="url(#SVGID_30_)">
				<use xlink:href="#SVGID_28_"  overflow="visible"/>
			</clipPath>
			<clipPath id="SVGID_32_" clip-path="url(#SVGID_31_)">
				<use xlink:href="#SVGID_29_"  overflow="visible"/>
			</clipPath>
			<path clip-path="url(#SVGID_32_)" fill="none" stroke="#FFFFFF" stroke-width="2" stroke-miterlimit="10" d="M126.493,20.5
				c-4.415,0-7.993,3.591-7.993,7.994v89.22c0,4.414,3.576,7.994,7.993,7.994h66.014c4.415,0,7.993-3.592,7.993-7.994v-89.22
				c0-4.415-3.576-7.994-7.993-7.994H126.493L126.493,20.5z"/>
		</g>
	</g>
	<g>
		<path fill="#FFFFFF" d="M136.249,99.74c0-23.723,31.507-26.874,31.507-41.051c0-6.209-4.448-9.359-10.008-9.359
			c-7.691,0-12.417,8.247-12.417,8.247l-8.34-5.745c0,0,6.023-13.159,21.776-13.159c11.583,0,21.499,7.042,21.499,19.46
			c0,20.387-30.58,24.186-30.858,37.715h22.704v-8.34h10.378v18.07h-45.592C136.527,103.447,136.249,101.593,136.249,99.74z"/>
	</g>
	<g>
		<g>
			<defs>
				<rect id="SVGID_33_" x="10.5" y="4.569" width="607" height="190"/>
			</defs>
			<clipPath id="SVGID_34_">
				<use xlink:href="#SVGID_33_"  overflow="visible"/>
			</clipPath>
		</g>
		<g>
			<defs>
				<rect id="SVGID_35_" x="10.5" y="4.569" width="607" height="190"/>
			</defs>
			<defs>
				<path id="SVGID_36_" d="M28.493,20.5c-4.415,0-7.993,3.591-7.993,7.994v89.22c0,4.414,3.576,7.994,7.993,7.994h66.014
					c4.415,0,7.993-3.592,7.993-7.994v-89.22c0-4.415-3.576-7.994-7.993-7.994H28.493L28.493,20.5z"/>
			</defs>
			<clipPath id="SVGID_37_">
				<use xlink:href="#SVGID_35_"  overflow="visible"/>
			</clipPath>
			<clipPath id="SVGID_38_" clip-path="url(#SVGID_37_)">
				<use xlink:href="#SVGID_36_"  overflow="visible"/>
			</clipPath>
		</g>
		<g>
			<defs>
				<rect id="SVGID_39_" x="10.5" y="4.569" width="607" height="190"/>
			</defs>
			<defs>
				<path id="SVGID_40_" d="M28.493,20.5c-4.415,0-7.993,3.591-7.993,7.994v89.22c0,4.414,3.576,7.994,7.993,7.994h66.014
					c4.415,0,7.993-3.592,7.993-7.994v-89.22c0-4.415-3.576-7.994-7.993-7.994H28.493L28.493,20.5z"/>
			</defs>
			<defs>
				<path id="SVGID_41_" d="M0,0h123v146.208H0V0z M28.493,20C23.807,20,20,23.811,20,28.494v89.22c0,4.691,3.801,8.494,8.493,8.494
					h66.014c4.687,0,8.493-3.811,8.493-8.494v-89.22C103,23.802,99.199,20,94.507,20H28.493L28.493,20z M28.493,21h66.014
					c4.14,0,7.493,3.354,7.493,7.494v89.22c0,4.132-3.359,7.494-7.493,7.494H28.493c-4.14,0-7.493-3.354-7.493-7.494v-89.22
					C21,24.363,24.359,21,28.493,21L28.493,21z"/>
			</defs>
			<clipPath id="SVGID_42_">
				<use xlink:href="#SVGID_39_"  overflow="visible"/>
			</clipPath>
			<clipPath id="SVGID_43_" clip-path="url(#SVGID_42_)">
				<use xlink:href="#SVGID_40_"  overflow="visible"/>
			</clipPath>
			<clipPath id="SVGID_44_" clip-path="url(#SVGID_43_)">
				<use xlink:href="#SVGID_41_"  overflow="visible"/>
			</clipPath>
		</g>
		<g>
			<defs>
				<rect id="SVGID_45_" x="10.5" y="4.569" width="607" height="190"/>
			</defs>
			<defs>
				<path id="SVGID_46_" d="M28.493,20.5c-4.415,0-7.993,3.591-7.993,7.994v89.22c0,4.414,3.576,7.994,7.993,7.994h66.014
					c4.415,0,7.993-3.592,7.993-7.994v-89.22c0-4.415-3.576-7.994-7.993-7.994H28.493L28.493,20.5z"/>
			</defs>
			<defs>
				<path id="SVGID_47_" d="M0,0h123v146.208H0V0z M28.493,20C23.807,20,20,23.811,20,28.494v89.22c0,4.691,3.801,8.494,8.493,8.494
					h66.014c4.687,0,8.493-3.811,8.493-8.494v-89.22C103,23.802,99.199,20,94.507,20H28.493L28.493,20z M28.493,21h66.014
					c4.14,0,7.493,3.354,7.493,7.494v89.22c0,4.132-3.359,7.494-7.493,7.494H28.493c-4.14,0-7.493-3.354-7.493-7.494v-89.22
					C21,24.363,24.359,21,28.493,21L28.493,21z"/>
			</defs>
			<defs>
				<rect id="SVGID_48_" x="10.5" y="-597.431" width="612" height="792"/>
			</defs>
			<clipPath id="SVGID_49_">
				<use xlink:href="#SVGID_45_"  overflow="visible"/>
			</clipPath>
			<clipPath id="SVGID_50_" clip-path="url(#SVGID_49_)">
				<use xlink:href="#SVGID_46_"  overflow="visible"/>
			</clipPath>
			<clipPath id="SVGID_51_" clip-path="url(#SVGID_50_)">
				<use xlink:href="#SVGID_47_"  overflow="visible"/>
			</clipPath>
			<clipPath id="SVGID_52_" clip-path="url(#SVGID_51_)">
				<use xlink:href="#SVGID_48_"  overflow="visible"/>
			</clipPath>
			<path clip-path="url(#SVGID_52_)" fill="#EAAB00" d="M28.493,20.5c-4.415,0-7.993,3.591-7.993,7.994v89.22
				c0,4.414,3.576,7.994,7.993,7.994h66.014c4.415,0,7.993-3.592,7.993-7.994v-89.22c0-4.415-3.576-7.994-7.993-7.994H28.493
				L28.493,20.5z"/>
		</g>
	</g>
	<g>
		<g>
			<defs>
				<rect id="SVGID_53_" x="10.5" y="4.569" width="607" height="190"/>
			</defs>
			<clipPath id="SVGID_54_">
				<use xlink:href="#SVGID_53_"  overflow="visible"/>
			</clipPath>
		</g>
		<g>
			<defs>
				<rect id="SVGID_55_" x="10.5" y="4.569" width="607" height="190"/>
			</defs>
			<defs>
				<path id="SVGID_56_" d="M28.493,20.5c-4.415,0-7.993,3.591-7.993,7.994v89.22c0,4.414,3.576,7.994,7.993,7.994h66.014
					c4.415,0,7.993-3.592,7.993-7.994v-89.22c0-4.415-3.576-7.994-7.993-7.994H28.493L28.493,20.5z"/>
			</defs>
			<clipPath id="SVGID_57_">
				<use xlink:href="#SVGID_55_"  overflow="visible"/>
			</clipPath>
			<clipPath id="SVGID_58_" clip-path="url(#SVGID_57_)">
				<use xlink:href="#SVGID_56_"  overflow="visible"/>
			</clipPath>
		</g>
		<g>
			<defs>
				<rect id="SVGID_59_" x="10.5" y="4.569" width="607" height="190"/>
			</defs>
			<defs>
				<path id="SVGID_60_" d="M28.493,20.5c-4.415,0-7.993,3.591-7.993,7.994v89.22c0,4.414,3.576,7.994,7.993,7.994h66.014
					c4.415,0,7.993-3.592,7.993-7.994v-89.22c0-4.415-3.576-7.994-7.993-7.994H28.493L28.493,20.5z"/>
			</defs>
			<defs>
				<rect id="SVGID_61_" x="10.5" y="-597.431" width="612" height="792"/>
			</defs>
			<clipPath id="SVGID_62_">
				<use xlink:href="#SVGID_59_"  overflow="visible"/>
			</clipPath>
			<clipPath id="SVGID_63_" clip-path="url(#SVGID_62_)">
				<use xlink:href="#SVGID_60_"  overflow="visible"/>
			</clipPath>
			<clipPath id="SVGID_64_" clip-path="url(#SVGID_63_)">
				<use xlink:href="#SVGID_61_"  overflow="visible"/>
			</clipPath>
			<path clip-path="url(#SVGID_64_)" fill="none" stroke="#FFFFFF" stroke-width="2" stroke-miterlimit="10" d="M28.493,20.5
				c-4.415,0-7.993,3.591-7.993,7.994v89.22c0,4.414,3.576,7.994,7.993,7.994h66.014c4.415,0,7.993-3.592,7.993-7.994v-89.22
				c0-4.415-3.576-7.994-7.993-7.994H28.493L28.493,20.5z"/>
		</g>
	</g>
	<g>
		<path fill="#FFFFFF" d="M41.79,95.848h14.363V58.781c0-2.224,0.093-4.448,0.093-4.448H56.06c0,0-0.741,1.575-2.873,3.707
			l-5.282,5.004l-7.043-7.413l16.495-15.846h10.472v56.063h14.178v9.729H41.79V95.848z"/>
	</g>
	<g>
		<g>
			<defs>
				<rect id="SVGID_65_" x="10.5" y="4.569" width="607" height="190"/>
			</defs>
			<clipPath id="SVGID_66_">
				<use xlink:href="#SVGID_65_"  overflow="visible"/>
			</clipPath>
		</g>
		<g>
			<defs>
				<rect id="SVGID_67_" x="10.5" y="4.569" width="607" height="190"/>
			</defs>
			<defs>
				<path id="SVGID_68_" d="M224.493,20.5c-4.415,0-7.993,3.591-7.993,7.994v89.22c0,4.414,3.576,7.994,7.993,7.994h66.014
					c4.415,0,7.993-3.592,7.993-7.994v-89.22c0-4.415-3.576-7.994-7.993-7.994H224.493L224.493,20.5z"/>
			</defs>
			<clipPath id="SVGID_69_">
				<use xlink:href="#SVGID_67_"  overflow="visible"/>
			</clipPath>
			<clipPath id="SVGID_70_" clip-path="url(#SVGID_69_)">
				<use xlink:href="#SVGID_68_"  overflow="visible"/>
			</clipPath>
		</g>
		<g>
			<defs>
				<rect id="SVGID_71_" x="10.5" y="4.569" width="607" height="190"/>
			</defs>
			<defs>
				<path id="SVGID_72_" d="M224.493,20.5c-4.415,0-7.993,3.591-7.993,7.994v89.22c0,4.414,3.576,7.994,7.993,7.994h66.014
					c4.415,0,7.993-3.592,7.993-7.994v-89.22c0-4.415-3.576-7.994-7.993-7.994H224.493L224.493,20.5z"/>
			</defs>
			<defs>
				<path id="SVGID_73_" d="M196,0h123v146.208H196V0z M224.493,20c-4.687,0-8.493,3.811-8.493,8.494v89.22
					c0,4.691,3.801,8.494,8.493,8.494h66.014c4.687,0,8.493-3.811,8.493-8.494v-89.22c0-4.692-3.801-8.494-8.493-8.494H224.493
					L224.493,20z M224.493,21h66.014c4.14,0,7.493,3.354,7.493,7.494v89.22c0,4.132-3.359,7.494-7.493,7.494h-66.014
					c-4.14,0-7.493-3.354-7.493-7.494v-89.22C217,24.363,220.359,21,224.493,21L224.493,21z"/>
			</defs>
			<clipPath id="SVGID_74_">
				<use xlink:href="#SVGID_71_"  overflow="visible"/>
			</clipPath>
			<clipPath id="SVGID_75_" clip-path="url(#SVGID_74_)">
				<use xlink:href="#SVGID_72_"  overflow="visible"/>
			</clipPath>
			<clipPath id="SVGID_76_" clip-path="url(#SVGID_75_)">
				<use xlink:href="#SVGID_73_"  overflow="visible"/>
			</clipPath>
		</g>
		<g>
			<defs>
				<rect id="SVGID_77_" x="10.5" y="4.569" width="607" height="190"/>
			</defs>
			<defs>
				<path id="SVGID_78_" d="M224.493,20.5c-4.415,0-7.993,3.591-7.993,7.994v89.22c0,4.414,3.576,7.994,7.993,7.994h66.014
					c4.415,0,7.993-3.592,7.993-7.994v-89.22c0-4.415-3.576-7.994-7.993-7.994H224.493L224.493,20.5z"/>
			</defs>
			<defs>
				<path id="SVGID_79_" d="M196,0h123v146.208H196V0z M224.493,20c-4.687,0-8.493,3.811-8.493,8.494v89.22
					c0,4.691,3.801,8.494,8.493,8.494h66.014c4.687,0,8.493-3.811,8.493-8.494v-89.22c0-4.692-3.801-8.494-8.493-8.494H224.493
					L224.493,20z M224.493,21h66.014c4.14,0,7.493,3.354,7.493,7.494v89.22c0,4.132-3.359,7.494-7.493,7.494h-66.014
					c-4.14,0-7.493-3.354-7.493-7.494v-89.22C217,24.363,220.359,21,224.493,21L224.493,21z"/>
			</defs>
			<defs>
				<rect id="SVGID_80_" x="10.5" y="-597.431" width="612" height="792"/>
			</defs>
			<clipPath id="SVGID_81_">
				<use xlink:href="#SVGID_77_"  overflow="visible"/>
			</clipPath>
			<clipPath id="SVGID_82_" clip-path="url(#SVGID_81_)">
				<use xlink:href="#SVGID_78_"  overflow="visible"/>
			</clipPath>
			<clipPath id="SVGID_83_" clip-path="url(#SVGID_82_)">
				<use xlink:href="#SVGID_79_"  overflow="visible"/>
			</clipPath>
			<clipPath id="SVGID_84_" clip-path="url(#SVGID_83_)">
				<use xlink:href="#SVGID_80_"  overflow="visible"/>
			</clipPath>
			<path clip-path="url(#SVGID_84_)" fill="#EAAB00" d="M224.493,20.5c-4.415,0-7.993,3.591-7.993,7.994v89.22
				c0,4.414,3.576,7.994,7.993,7.994h66.014c4.415,0,7.993-3.592,7.993-7.994v-89.22c0-4.415-3.576-7.994-7.993-7.994H224.493
				L224.493,20.5z"/>
		</g>
	</g>
	<g>
		<path fill="#FFFFFF" d="M236.971,39.784h41.515v8.433L263.01,66.565c8.433,1.297,16.958,7.228,16.958,18.533
			c0,11.213-8.433,21.592-23.445,21.592c-13.9,0-21.777-8.804-21.777-8.804l5.931-8.525c0,0,6.394,6.672,15.105,6.672
			c6.857,0,11.861-4.448,11.861-10.472c0-6.486-5.375-10.378-12.881-10.378c-1.482,0-2.873,0.185-3.614,0.185l-2.688-5.838
			l14.271-17.421c1.205-1.39,2.78-2.687,2.78-2.687v-0.186c0,0-2.131,0.278-3.707,0.278H247.35v7.784h-10.379V39.784L236.971,39.784
			z"/>
	</g>
	<g>
		<path fill="#FFFFFF" d="M443.345,74.75h32.479l-8.26,52.5h-12.881l-0.84-10.5c-5.88,7.281-13.3,10.5-21.14,10.5
			c-18.2,0-26.46-11.34-26.46-32.759c0-30.66,9.38-73.5,46.34-73.5c18.34,0,26.18,10.22,26.18,26.88c0,3.22-0.42,6.72-0.979,10.64
			l-19.602,1.54c0.7-4.48,0.98-7.98,0.98-10.78c0-9.1-3.5-11.76-9.102-11.76c-11.34,0-18.76,14.84-21.56,33.88
			c-1.12,7.42-2.1,15.12-2.1,23.1c0,11.9,4.06,16.66,11.479,16.66c7.561,0,14.28-5.46,16.521-18.62l0.421-2.52h-14L443.345,74.75z"
			/>
		<path fill="#FFFFFF" d="M486.045,93.51c0-6.02,0.561-12.74,1.68-20.02c5.181-32.34,18.62-52.5,44.939-52.5
			c20.16,0,28.28,11.9,28.28,32.9c0,5.6-0.562,11.76-1.54,18.48c-4.76,34.161-16.521,54.879-43.54,54.879
			C495.004,127.25,486.045,115.49,486.045,93.51z M538.544,73.07c1.261-8.26,1.96-14.84,1.96-19.88c0-10.92-3.08-15.68-10.359-15.68
			c-12.181,0-17.92,12.74-21.561,35.56c-1.54,9.1-2.1,16.8-2.1,22.26c0,10.919,3.359,15.679,11.06,15.679
			C530.004,111.009,535.044,96.73,538.544,73.07z"/>
	</g>
	<g>
		<path fill="#EAAB00" d="M569.487,105.69h20.438l-3.08,19.88h-20.438L569.487,105.69z M581.947,22.81h21.699l-13.58,74.06h-17.92
			L581.947,22.81z"/>
	</g>
</g>
</svg>
