<?xml version="1.0" encoding="utf-8"?>
<!-- Generator: Adobe Illustrator 16.0.4, SVG Export Plug-In . SVG Version: 6.00 Build 0)  -->
<!DOCTYPE svg PUBLIC "-//W3C//DTD SVG 1.1//EN" "http://www.w3.org/Graphics/SVG/1.1/DTD/svg11.dtd">
<svg version="1.1" id="Layer_1" xmlns="http://www.w3.org/2000/svg" xmlns:xlink="http://www.w3.org/1999/xlink" x="0px" y="0px"
	 width="601.739px" height="126.957px" viewBox="0 0 601.739 126.957" enable-background="new 0 0 601.739 126.957"
	 xml:space="preserve">
<g>
	<path fill="#FFFFFF" d="M313.276,100.76h13.92l-2.017,13.631h-14.015L313.276,100.76z M336.603,100.76h14.016l-2.112,13.631
		h-14.015L336.603,100.76z M359.929,100.76h14.016l-2.111,13.631h-14.016L359.929,100.76z"/>
</g>
<g>
	<defs>
		<path id="SVGID_1_" d="M115.254,8.822h66.014c4.14,0,7.493,3.354,7.493,7.494v89.221c0,4.131-3.359,7.493-7.493,7.493h-66.014
			c-4.14,0-7.493-3.354-7.493-7.493V16.316C107.761,12.184,111.12,8.822,115.254,8.822z M115.254,7.822
			c-4.687,0-8.493,3.811-8.493,8.494v89.221c0,4.691,3.801,8.493,8.493,8.493h66.014c4.687,0,8.493-3.811,8.493-8.493V16.316
			c0-4.692-3.801-8.494-8.493-8.494H115.254z M86.761-12.178h123V134.03h-123V-12.178z"/>
	</defs>
	<clipPath id="SVGID_2_">
		<use xlink:href="#SVGID_1_"  overflow="visible"/>
	</clipPath>
	<g clip-path="url(#SVGID_2_)">
		<defs>
			<path id="SVGID_3_" d="M115.254,8.322c-4.415,0-7.993,3.591-7.993,7.994v89.221c0,4.414,3.576,7.993,7.993,7.993h66.014
				c4.415,0,7.993-3.591,7.993-7.993V16.316c0-4.415-3.576-7.994-7.993-7.994H115.254z"/>
		</defs>
		<clipPath id="SVGID_4_">
			<use xlink:href="#SVGID_3_"  overflow="visible"/>
		</clipPath>
		<path clip-path="url(#SVGID_4_)" fill-rule="evenodd" clip-rule="evenodd" fill="#EAAD21" d="M115.254,8.322
			c-4.415,0-7.993,3.591-7.993,7.994v89.221c0,4.414,3.576,7.993,7.993,7.993h66.014c4.415,0,7.993-3.591,7.993-7.993V16.316
			c0-4.415-3.576-7.994-7.993-7.994H115.254z"/>
	</g>
</g>
<g>
	<defs>
		<path id="SVGID_5_" d="M115.254,8.322c-4.415,0-7.993,3.591-7.993,7.994v89.221c0,4.414,3.576,7.993,7.993,7.993h66.014
			c4.415,0,7.993-3.591,7.993-7.993V16.316c0-4.415-3.576-7.994-7.993-7.994H115.254z"/>
	</defs>
	<clipPath id="SVGID_6_">
		<use xlink:href="#SVGID_5_"  overflow="visible"/>
	</clipPath>
	<path clip-path="url(#SVGID_6_)" fill="none" stroke="#FFFFFF" stroke-width="2" stroke-miterlimit="10" d="M115.254,8.322
		c-4.415,0-7.993,3.591-7.993,7.994v89.22c0,4.415,3.576,7.994,7.993,7.994h66.014c4.415,0,7.993-3.591,7.993-7.994v-89.22
		c0-4.415-3.576-7.994-7.993-7.994H115.254z"/>
</g>
<g>
	<path fill="#FFFFFF" d="M125.004,87.553c0-23.723,31.507-26.873,31.507-41.052c0-6.208-4.448-9.359-10.008-9.359
		c-7.691,0-12.417,8.248-12.417,8.248l-8.34-5.746c0,0,6.023-13.158,21.776-13.158c11.583,0,21.499,7.043,21.499,19.46
		c0,20.387-30.58,24.186-30.858,37.715h22.704v-8.34h10.378v18.07h-45.592C125.283,91.26,125.004,89.407,125.004,87.553z"/>
</g>
<g>
	<defs>
		<path id="SVGID_7_" d="M17.254,8.822h66.014c4.14,0,7.493,3.354,7.493,7.494v89.221c0,4.131-3.359,7.493-7.493,7.493H17.254
			c-4.14,0-7.493-3.354-7.493-7.493V16.316C9.761,12.184,13.12,8.822,17.254,8.822z M17.254,7.822c-4.687,0-8.493,3.811-8.493,8.494
			v89.221c0,4.691,3.801,8.493,8.493,8.493h66.014c4.687,0,8.493-3.811,8.493-8.493V16.316c0-4.692-3.801-8.494-8.493-8.494H17.254z
			 M-11.239-12.178h123V134.03h-123V-12.178z"/>
	</defs>
	<clipPath id="SVGID_8_">
		<use xlink:href="#SVGID_7_"  overflow="visible"/>
	</clipPath>
	<g clip-path="url(#SVGID_8_)">
		<defs>
			<path id="SVGID_9_" d="M17.254,8.322c-4.415,0-7.993,3.591-7.993,7.994v89.221c0,4.414,3.576,7.993,7.993,7.993h66.014
				c4.415,0,7.993-3.591,7.993-7.993V16.316c0-4.415-3.576-7.994-7.993-7.994H17.254z"/>
		</defs>
		<clipPath id="SVGID_10_">
			<use xlink:href="#SVGID_9_"  overflow="visible"/>
		</clipPath>
		<path clip-path="url(#SVGID_10_)" fill-rule="evenodd" clip-rule="evenodd" fill="#EAAD21" d="M17.254,8.322
			c-4.415,0-7.993,3.591-7.993,7.994v89.221c0,4.414,3.576,7.993,7.993,7.993h66.014c4.415,0,7.993-3.591,7.993-7.993V16.316
			c0-4.415-3.576-7.994-7.993-7.994H17.254z"/>
	</g>
</g>
<g>
	<defs>
		<path id="SVGID_11_" d="M17.254,8.322c-4.415,0-7.993,3.591-7.993,7.994v89.221c0,4.414,3.576,7.993,7.993,7.993h66.014
			c4.415,0,7.993-3.591,7.993-7.993V16.316c0-4.415-3.576-7.994-7.993-7.994H17.254z"/>
	</defs>
	<clipPath id="SVGID_12_">
		<use xlink:href="#SVGID_11_"  overflow="visible"/>
	</clipPath>
	<path clip-path="url(#SVGID_12_)" fill="none" stroke="#FFFFFF" stroke-width="2" stroke-miterlimit="10" d="M17.254,8.322
		c-4.415,0-7.993,3.591-7.993,7.994v89.22c0,4.415,3.576,7.994,7.993,7.994h66.014c4.415,0,7.993-3.591,7.993-7.994v-89.22
		c0-4.415-3.576-7.994-7.993-7.994H17.254z"/>
</g>
<g>
	<path fill="#FFFFFF" d="M30.561,83.661h14.363V46.594c0-2.224,0.093-4.448,0.093-4.448h-0.186c0,0-0.741,1.576-2.873,3.707
		l-5.282,5.004l-7.043-7.413l16.495-15.846H56.6v56.062h14.178v9.73H30.561V83.661z"/>
</g>
<g>
	<defs>
		<path id="SVGID_13_" d="M213.254,8.822h66.014c4.14,0,7.493,3.354,7.493,7.494v89.221c0,4.131-3.359,7.493-7.493,7.493h-66.014
			c-4.14,0-7.493-3.354-7.493-7.493V16.316C205.761,12.184,209.12,8.822,213.254,8.822z M213.254,7.822
			c-4.687,0-8.493,3.811-8.493,8.494v89.221c0,4.691,3.801,8.493,8.493,8.493h66.014c4.687,0,8.493-3.811,8.493-8.493V16.316
			c0-4.692-3.801-8.494-8.493-8.494H213.254z M184.761-12.178h123V134.03h-123V-12.178z"/>
	</defs>
	<clipPath id="SVGID_14_">
		<use xlink:href="#SVGID_13_"  overflow="visible"/>
	</clipPath>
	<g clip-path="url(#SVGID_14_)">
		<defs>
			<path id="SVGID_15_" d="M213.254,8.322c-4.415,0-7.993,3.591-7.993,7.994v89.221c0,4.414,3.576,7.993,7.993,7.993h66.014
				c4.415,0,7.993-3.591,7.993-7.993V16.316c0-4.415-3.576-7.994-7.993-7.994H213.254z"/>
		</defs>
		<clipPath id="SVGID_16_">
			<use xlink:href="#SVGID_15_"  overflow="visible"/>
		</clipPath>
		<path clip-path="url(#SVGID_16_)" fill-rule="evenodd" clip-rule="evenodd" fill="#EAAD21" d="M213.254,8.322
			c-4.415,0-7.993,3.591-7.993,7.994v89.221c0,4.414,3.576,7.993,7.993,7.993h66.014c4.415,0,7.993-3.591,7.993-7.993V16.316
			c0-4.415-3.576-7.994-7.993-7.994H213.254z"/>
	</g>
</g>
<g>
	<defs>
		<path id="SVGID_17_" d="M213.254,8.322c-4.415,0-7.993,3.591-7.993,7.994v89.221c0,4.414,3.576,7.993,7.993,7.993h66.014
			c4.415,0,7.993-3.591,7.993-7.993V16.316c0-4.415-3.576-7.994-7.993-7.994H213.254z"/>
	</defs>
	<clipPath id="SVGID_18_">
		<use xlink:href="#SVGID_17_"  overflow="visible"/>
	</clipPath>
	<path clip-path="url(#SVGID_18_)" fill="none" stroke="#FFFFFF" stroke-width="2" stroke-miterlimit="10" d="M213.254,8.322
		c-4.415,0-7.993,3.591-7.993,7.994v89.22c0,4.415,3.576,7.994,7.993,7.994h66.014c4.414,0,7.993-3.591,7.993-7.994v-89.22
		c0-4.415-3.576-7.994-7.993-7.994H213.254z"/>
</g>
<g>
	<path fill="#FFFFFF" d="M225.742,27.598h41.515v8.433l-15.475,18.348c8.433,1.298,16.958,7.229,16.958,18.533
		c0,11.213-8.433,21.592-23.445,21.592c-13.9,0-21.777-8.804-21.777-8.804l5.931-8.525c0,0,6.394,6.672,15.105,6.672
		c6.857,0,11.861-4.447,11.861-10.471c0-6.487-5.375-10.379-12.881-10.379c-1.482,0-2.873,0.186-3.614,0.186l-2.688-5.838
		l14.271-17.422c1.205-1.39,2.78-2.688,2.78-2.688v-0.186c0,0-2.131,0.278-3.707,0.278h-14.456v7.784h-10.379V27.598z"/>
</g>
<g>
	<path fill="#FFFFFF" d="M432.101,62.572h32.48l-8.26,52.499H443.44l-0.84-10.5c-5.88,7.28-13.3,10.5-21.14,10.5
		c-18.2,0-26.46-11.34-26.46-32.76c0-30.659,9.38-73.499,46.34-73.499c18.34,0,26.18,10.22,26.18,26.88c0,3.22-0.42,6.72-0.98,10.64
		l-19.6,1.54c0.7-4.48,0.98-7.98,0.98-10.78c0-9.1-3.5-11.76-9.1-11.76c-11.341,0-18.761,14.84-21.561,33.88
		c-1.12,7.42-2.1,15.12-2.1,23.1c0,11.9,4.06,16.66,11.479,16.66c7.56,0,14.28-5.46,16.521-18.62l0.42-2.52h-14L432.101,62.572z"/>
	<path fill="#FFFFFF" d="M474.94,81.332c0-6.021,0.561-12.74,1.68-20.021c5.18-32.34,18.62-52.499,44.939-52.499
		c20.16,0,28.281,11.899,28.281,32.899c0,5.6-0.561,11.76-1.541,18.479c-4.76,34.16-16.52,54.88-43.539,54.88
		C483.9,115.071,474.94,103.311,474.94,81.332z M527.44,60.891c1.26-8.26,1.96-14.84,1.96-19.88c0-10.92-3.08-15.68-10.36-15.68
		c-12.18,0-17.92,12.74-21.56,35.56c-1.54,9.101-2.101,16.8-2.101,22.26c0,10.92,3.36,15.681,11.061,15.681
		C518.9,98.832,523.94,84.551,527.44,60.891z"/>
</g>
<g>
	<path fill="#EAAD21" d="M558.241,93.511h20.439l-3.08,19.88h-20.439L558.241,93.511z M570.7,10.631h21.7l-13.579,74.06h-17.92
		L570.7,10.631z"/>
</g>
</svg>
