<?xml version="1.0" encoding="utf-8"?>
<!-- Generator: Adobe Illustrator 16.0.4, SVG Export Plug-In . SVG Version: 6.00 Build 0)  -->
<!DOCTYPE svg PUBLIC "-//W3C//DTD SVG 1.1//EN" "http://www.w3.org/Graphics/SVG/1.1/DTD/svg11.dtd">
<svg version="1.1" id="Layer_1" xmlns="http://www.w3.org/2000/svg" xmlns:xlink="http://www.w3.org/1999/xlink" x="0px" y="0px"
	 width="534.123px" height="165.333px" viewBox="0 0 534.123 165.333" enable-background="new 0 0 534.123 165.333"
	 xml:space="preserve">
<g>
	<path fill-rule="evenodd" clip-rule="evenodd" fill="#EEB211" d="M289.715,135.687l0.235-0.363
		c0.304-0.089,1.107-0.174,2.011-0.174c3.229,0,5.209,2.255,5.209,6.014c0,2.286-0.783,3.913-1.833,4.64
		c-0.698,0.481-1.531,0.569-2.259,0.569c-1.323,0-2.706-0.216-3.158-0.481l-0.205-0.362V135.687L289.715,135.687z M287.301,148.207
		c0,2.884,0,5.268-0.147,6.525c-0.127,0.873-0.274,1.541-0.873,1.657l-0.902,0.117l-0.246,0.188c0,0.176,0.157,0.235,0.48,0.235
		c0.903,0,2.808-0.089,2.837-0.089c0.146,0,2.04,0.089,3.699,0.089c0.332,0,0.479-0.089,0.479-0.235l-0.245-0.188
		c-0.266,0-0.932-0.06-1.354-0.117c-0.903-0.116-1.079-0.784-1.168-1.657c-0.146-1.258-0.146-3.642-0.146-6.525v-0.726l0.205-0.235
		l3.699,0.058l0.393,0.178c0.599,0.785,2.021,2.806,3.277,4.454c1.716,2.257,2.767,3.728,4.062,4.423
		c0.784,0.425,1.54,0.571,3.217,0.571h2.14c0.539,0,0.726-0.06,0.726-0.235l-0.273-0.188c-0.179,0-0.599,0-1.169-0.087
		c-0.754-0.117-2.051-0.451-3.679-2.169c-1.736-1.863-3.787-4.542-6.25-7.702c2.709-2.492,3.641-4.719,3.641-6.946
		c0-2.08-1.324-3.552-2.08-4.09c-1.59-1.147-3.61-1.325-5.505-1.325c-0.931,0-3.218,0.089-3.551,0.089
		c-0.146,0-2.051-0.089-3.404-0.089c-0.324,0-0.481,0.06-0.481,0.235l0.245,0.187l1.021,0.089c0.99,0.204,1.236,0.696,1.295,1.715
		c0.059,0.963,0.059,1.806,0.059,6.496V148.207L287.301,148.207z"/>
	<path fill="none" stroke="#EEB211" stroke-width="1.7318" stroke-miterlimit="3.8637" d="M289.715,135.687l0.235-0.363
		c0.304-0.089,1.107-0.174,2.011-0.174c3.229,0,5.209,2.255,5.209,6.014c0,2.286-0.783,3.913-1.833,4.64
		c-0.698,0.481-1.531,0.569-2.259,0.569c-1.323,0-2.706-0.216-3.158-0.481l-0.205-0.362V135.687L289.715,135.687z M287.301,148.207
		c0,2.884,0,5.268-0.147,6.525c-0.127,0.873-0.274,1.541-0.873,1.657l-0.902,0.117l-0.246,0.188c0,0.176,0.157,0.235,0.48,0.235
		c0.903,0,2.808-0.089,2.837-0.089c0.146,0,2.04,0.089,3.699,0.089c0.332,0,0.479-0.089,0.479-0.235l-0.245-0.188
		c-0.266,0-0.932-0.06-1.354-0.117c-0.903-0.116-1.079-0.784-1.168-1.657c-0.146-1.258-0.146-3.642-0.146-6.525v-0.726l0.205-0.235
		l3.699,0.058l0.393,0.178c0.599,0.785,2.021,2.806,3.277,4.454c1.716,2.257,2.767,3.728,4.062,4.423
		c0.784,0.425,1.54,0.571,3.217,0.571h2.14c0.539,0,0.726-0.06,0.726-0.235l-0.273-0.188c-0.179,0-0.599,0-1.169-0.087
		c-0.754-0.117-2.051-0.451-3.679-2.169c-1.736-1.863-3.787-4.542-6.25-7.702c2.709-2.492,3.641-4.719,3.641-6.946
		c0-2.08-1.324-3.552-2.08-4.09c-1.59-1.147-3.61-1.325-5.505-1.325c-0.931,0-3.218,0.089-3.551,0.089
		c-0.146,0-2.051-0.089-3.404-0.089c-0.324,0-0.481,0.06-0.481,0.235l0.245,0.187l1.021,0.089c0.99,0.204,1.236,0.696,1.295,1.715
		c0.059,0.963,0.059,1.806,0.059,6.496V148.207L287.301,148.207z"/>
	<path fill="#EEB211" stroke="#EEB211" stroke-width="1.7318" stroke-miterlimit="3.8637" d="M277.067,36.528
		c0,0,0.932-0.903,3.259-1.119c2.667-0.245,4.119-1.383,5.11-2.629c0.991-1.237,0.952-2.561,2.051-3.621
		c1.117-1.079,2.089-1.756,3.434-1.903c1.363-0.147,2.404,0.049,3.482-0.579c1.08-0.628,1.118-0.638,1.118-0.638
		s-0.785,0.265-1.784,0.344c-0.992,0.088-2.523-0.324-3.433-0.324c-0.913,0-2.857,0.412-3.976,1.442
		c-1.118,1.04-2.196,2.698-3.315,3.149c-1.119,0.451-2.669,0.893-3.474,0.647c-1.433-0.441-1.992-0.765-3.237-0.609
		c-1.236,0.167-1.59,0.383-1.59,0.383l12.852-16.502l-17.198,12.332c0,0,0.021-0.764,0.521-1.844
		c0.489-1.069,2.258-2.198,2.521-3.993c0.225-1.531,0.354-2.482-0.5-4.238c-0.735-1.56-0.658-2.865-0.472-3.837
		c0.206-1.099,0.893-2.237,1.512-2.835c1.06-1.021,1.305-1.619,1.51-2.384l0.187-0.746c0,0-0.038,0.313-0.824,1.305
		c-0.844,1.06-1.333,0.785-2.363,1.747c-1.04,0.951-1.775,2.129-2.111,3.512c-0.391,1.619,0.345,2.247,0.129,3.895
		c-0.216,1.55-0.362,1.865-1.207,3.022c-0.726,0.991-1.255,1.207-2.354,1.785c-0.873,0.452-1.609,1.07-2.08,2.188l-3.227-20.182
		l-3.062,20.348c0,0-1.118-1.736-1.157-2.315c-0.06-0.746-0.108-3.188-1.492-4.621c-1.158-1.197-1.805-1.531-3.729-2.257
		c-1.128-0.422-2.423-1.756-2.981-2.934c-0.56-1.187-0.452-3.355-0.619-3.856s-0.913-1.677-0.913-1.677s0.413,1.021,0.373,2.011
		c-0.039,0.991-0.54,2.728-0.412,3.435c0.126,0.706,0.205,2.158,1.736,3.561c1.531,1.413,2.158,1.246,3.11,3.11
		c0.952,1.864,0.785,2.816,0.452,3.846c-0.334,1.04-0.707,2.031-0.373,2.904c0.333,0.864,0.323,1.049,0.323,1.049l-17.189-12.332
		l12.725,16.492c0,0-1.637-0.146-2.521-0.932c-1.226-1.069-2.051-1.608-3.483-2.001c0,0-1.344-0.481-3.286,0.097
		c-1.953,0.579-1.58,0.727-2.905,0.933c-1.325,0.206-3.454-0.117-4.493-0.991c-1.03-0.873-1.884-1.639-2.63-1.883
		c-0.746-0.246-1.344-0.314-1.344-0.314s1.197,0.422,2.109,1.452c0.933,1.06,1.157,2.041,2.483,2.776
		c1.393,0.766,2.57,1.07,3.816,0.992c1.236-0.089,1.275-0.383,2.934-0.187c0.893,0.098,2.629,0.785,3.071,1.305
		c1.167,1.393,1.883,2.747,2.442,3.267c0.707,0.667,1.57,0.952,1.57,0.952L225,40.05c0,0,19.985-1.324,22.595-1.452
		c2.609-0.118,9.752-0.677,14.099-0.618c4.346,0.069,6.955,0.255,9.869,0.432c2.924,0.187,27.146,1.727,27.146,1.727L277.067,36.528
		L277.067,36.528z"/>
	<path fill="#EEB211" stroke="#EEB211" stroke-width="1.7318" stroke-miterlimit="3.8637" d="M44.144,142.909
		c0-4.69,0-5.533-0.069-6.496c-0.059-1.019-0.294-1.511-1.286-1.715l-1.03-0.089l-0.235-0.187c0-0.176,0.147-0.235,0.481-0.235
		c1.354,0,3.188,0.089,3.453,0.089c0.275,0,2.08-0.089,2.983-0.089c0.333,0,0.48,0.06,0.48,0.235l-0.235,0.187
		c-0.216,0-0.392,0.029-0.755,0.089c-0.814,0.117-1.05,0.667-1.119,1.715c-0.059,0.963-0.059,1.806-0.059,6.496v4.222
		c0,4.323,0.961,6.188,2.257,7.425c1.481,1.384,2.834,1.656,4.542,1.656c1.835,0,3.64-0.872,4.729-2.167
		c1.384-1.718,1.747-4.278,1.747-7.368v-3.768c0-4.69,0-5.533-0.059-6.496c-0.069-1.019-0.304-1.511-1.295-1.715l-1.03-0.089
		l-0.236-0.187c0-0.176,0.147-0.235,0.481-0.235c1.354,0,3.012,0.089,3.188,0.089c0.216,0,1.628-0.089,2.531-0.089
		c0.324,0,0.481,0.06,0.481,0.235l-0.246,0.187c-0.206,0-0.392,0-0.746,0.089c-0.814,0.147-1.059,0.667-1.119,1.715
		c-0.059,0.963-0.059,1.806-0.059,6.496v3.217c0,3.259-0.362,6.87-2.767,8.999c-2.167,1.933-4.424,2.228-6.201,2.228
		c-1.02,0-4.061-0.119-6.2-2.141c-1.472-1.412-2.61-3.511-2.61-7.908V142.909L44.144,142.909z"/>
	<path fill="#EEB211" stroke="#EEB211" stroke-width="1.7318" stroke-miterlimit="3.8637" d="M98.477,152.838
		c0.06,2.471,0.364,3.247,1.168,3.493c0.578,0.146,1.236,0.175,1.51,0.175l0.236,0.188c0,0.176-0.177,0.235-0.54,0.235
		c-1.717,0-2.914-0.089-3.188-0.089c-0.274,0-1.53,0.089-2.884,0.089l-0.481-0.235l0.236-0.188c0.245,0,0.785-0.029,1.236-0.175
		c0.755-0.207,0.902-1.08,0.902-3.827l0.03-17.237c0-1.169,0.088-1.501,0.333-1.501l1.05,0.962
		c0.451,0.507,4.935,5.356,9.565,10.321c2.982,3.188,6.26,6.855,7.221,7.847l-0.323-15.285c-0.039-1.953-0.246-2.609-1.178-2.855
		c-0.54-0.117-1.236-0.146-1.472-0.146l-0.245-0.216c0-0.177,0.245-0.206,0.598-0.206c1.354,0,2.806,0.089,3.13,0.089
		c0.334,0,1.324-0.089,2.561-0.089c0.333,0,0.54,0.029,0.54,0.206l-0.324,0.216c-0.156,0-0.363,0-0.726,0.089
		c-0.991,0.204-1.119,0.873-1.119,2.678l-0.058,17.632c0,1.981-0.06,2.137-0.265,2.137c-0.246,0-0.609-0.334-2.198-1.933
		c-0.334-0.293-4.67-4.719-7.859-8.144c-3.482-3.767-6.888-7.553-7.849-8.644L98.477,152.838L98.477,152.838z"/>
	<path fill="#EEB211" stroke="#EEB211" stroke-width="1.7318" stroke-miterlimit="3.8637" d="M155.489,148.207
		c0,2.884,0,5.268,0.157,6.525c0.088,0.873,0.265,1.541,1.168,1.657c0.421,0.058,1.089,0.117,1.354,0.117l0.246,0.188
		c0,0.146-0.158,0.235-0.481,0.235c-1.658,0-3.552-0.089-3.708-0.089c-0.147,0-2.041,0.089-2.944,0.089
		c-0.333,0-0.48-0.06-0.48-0.235l0.235-0.188l0.903-0.117c0.607-0.116,0.754-0.784,0.873-1.657c0.157-1.258,0.157-3.642,0.157-6.525
		v-5.298c0-4.69,0-5.533-0.069-6.496c-0.059-1.019-0.354-1.54-1.02-1.685c-0.334-0.09-0.716-0.119-0.933-0.119l-0.235-0.187
		c0-0.176,0.147-0.235,0.481-0.235c0.99,0,2.884,0.089,3.031,0.089c0.157,0,2.051-0.089,2.953-0.089c0.333,0,0.481,0.06,0.481,0.235
		l-0.246,0.187c-0.206,0-0.383,0.029-0.746,0.089c-0.814,0.147-1.059,0.667-1.119,1.715c-0.059,0.963-0.059,1.806-0.059,6.496
		V148.207L155.489,148.207z"/>
	<path fill="#EEB211" stroke="#EEB211" stroke-width="1.7318" stroke-miterlimit="3.8637" d="M199.541,153.259
		c1.746-4.032,5.779-14.529,6.436-16.698c0.147-0.451,0.275-0.874,0.275-1.137l-0.393-0.696c-0.363-0.119-0.814-0.119-1.148-0.119
		l-0.324-0.187c0-0.176,0.177-0.235,0.658-0.235c1.207,0,2.59,0.089,2.953,0.089c0.177,0,1.472-0.089,2.346-0.089
		c0.323,0,0.51,0.06,0.51,0.206l-0.363,0.216c-0.206,0-0.873,0-1.441,0.361c-0.394,0.265-0.845,0.776-1.659,2.826
		c-0.333,0.845-1.834,4.454-3.365,8.155c-1.835,4.395-3.188,7.642-3.885,9.113c-0.844,1.805-0.961,2.287-1.265,2.287
		c-0.363,0-0.511-0.423-1.08-1.864l-7.368-18.446c-0.667-1.677-1.119-2.011-2.168-2.313c-0.451-0.119-0.961-0.119-1.148-0.119
		l-0.235-0.216c0-0.177,0.294-0.206,0.775-0.206c1.452,0,3.159,0.089,3.522,0.089c0.304,0,1.658-0.089,2.796-0.089
		c0.549,0,0.814,0.06,0.814,0.206l-0.294,0.216c-0.333,0-0.874,0.029-1.148,0.146c-0.333,0.146-0.393,0.395-0.393,0.609
		c0,0.382,0.363,1.314,0.815,2.491L199.541,153.259L199.541,153.259z"/>
	<path fill="#EEB211" stroke="#EEB211" stroke-width="1.7318" stroke-miterlimit="3.8637" d="M242.141,142.909
		c0-4.69,0-5.533-0.059-6.496c-0.059-1.019-0.304-1.511-1.296-1.715l-1.02-0.089l-0.245-0.187c0-0.176,0.157-0.235,0.48-0.235
		c1.354,0,3.257,0.089,3.404,0.089c0.207,0,6.201,0,6.888-0.029c0.569-0.03,1.059-0.089,1.295-0.148l0.422-0.157l0.117,0.275
		c0,0.206-0.147,0.569-0.236,1.415c-0.029,0.302-0.088,1.627-0.157,1.979l-0.206,0.334l-0.246-0.393
		c0-0.207-0.029-0.717-0.176-1.081c-0.207-0.478-0.51-0.84-2.139-1.02c-0.51-0.058-3.787-0.087-4.121-0.087l-0.176,0.293v8.31
		l0.176,0.295c0.393,0,4.091,0,4.788-0.058c0.716-0.058,1.138-0.118,1.413-0.421l0.451-0.394l0.147,0.245
		c0,0.175-0.147,0.687-0.235,1.688c-0.06,0.599-0.128,1.706-0.128,1.923l-0.205,0.569l-0.217-0.274c0-0.295,0-0.601-0.117-0.992
		c-0.119-0.423-0.393-0.931-1.56-1.048c-0.815-0.089-3.798-0.148-4.308-0.148l-0.207,0.206v2.648c0,1.021-0.03,4.514,0,5.142
		c0.089,2.08,0.54,2.474,3.483,2.474c0.785,0,2.11,0,2.895-0.334s1.138-0.933,1.354-2.169c0.059-0.323,0.117-0.451,0.265-0.451
		l0.187,0.451c0,0.245-0.247,2.286-0.393,2.924c-0.206,0.773-0.451,0.773-1.629,0.773c-4.542,0-6.553-0.176-7.427-0.176
		c-0.059,0-0.568,0.029-1.207,0.029c-0.599,0.028-1.295,0.06-1.747,0.06c-0.324,0-0.48-0.06-0.48-0.235l0.245-0.188l0.903-0.117
		c0.599-0.116,0.755-0.784,0.873-1.657c0.148-1.258,0.148-3.642,0.148-6.525V142.909L242.141,142.909z"/>
	<path fill="#EEB211" stroke="#EEB211" stroke-width="1.7318" stroke-miterlimit="3.8637" d="M334.873,156.538
		c-0.421-0.206-0.45-0.326-0.45-1.14c0-1.501,0.118-2.708,0.146-3.189c0.03-0.333,0.089-0.479,0.235-0.479l0.217,0.324
		c0,0.273,0,0.696,0.089,1.117c0.45,2.228,2.433,3.072,4.453,3.072c2.885,0,4.297-2.08,4.297-4.004c0-2.078-0.862-3.276-3.452-5.416
		l-1.354-1.118c-3.188-2.609-3.915-4.483-3.915-6.523c0-3.218,2.404-5.415,6.23-5.415c1.177,0,2.05,0.117,2.796,0.303
		c0.569,0.118,0.814,0.147,1.05,0.147l0.304,0.206c0,0.157-0.116,1.148-0.116,3.188c0,0.489-0.06,0.695-0.216,0.695l-0.235-0.391
		c-0.03-0.363-0.217-1.167-0.394-1.503c-0.177-0.333-0.99-1.598-3.757-1.598c-2.08,0-3.709,1.295-3.709,3.491
		c0,1.718,0.844,2.738,3.679,5.053l0.845,0.668c3.541,2.796,4.385,4.661,4.385,7.063c0,1.236-0.481,3.522-2.561,4.995
		c-1.286,0.903-2.914,1.267-4.544,1.267C337.484,157.352,336.102,157.144,334.873,156.538L334.873,156.538z"/>
	<path fill="#EEB211" stroke="#EEB211" stroke-width="1.7318" stroke-miterlimit="3.8637" d="M383.283,148.207
		c0,2.884,0,5.268,0.146,6.525c0.088,0.873,0.274,1.541,1.177,1.657c0.421,0.058,1.079,0.117,1.354,0.117l0.235,0.188
		c0,0.146-0.146,0.235-0.48,0.235c-1.659,0-3.552-0.089-3.697-0.089c-0.147,0-2.051,0.089-2.955,0.089
		c-0.323,0-0.479-0.06-0.479-0.235l0.244-0.188l0.902-0.117c0.598-0.116,0.756-0.784,0.873-1.657
		c0.147-1.258,0.147-3.642,0.147-6.525v-5.298c0-4.69,0-5.533-0.06-6.496c-0.059-1.019-0.363-1.54-1.02-1.685
		c-0.333-0.09-0.727-0.119-0.933-0.119l-0.245-0.187c0-0.176,0.158-0.235,0.481-0.235c0.991,0,2.895,0.089,3.042,0.089
		c0.146,0,2.038-0.089,2.951-0.089c0.324,0,0.48,0.06,0.48,0.235l-0.243,0.187c-0.207,0-0.393,0.029-0.756,0.089
		c-0.806,0.147-1.05,0.667-1.109,1.715c-0.058,0.963-0.058,1.806-0.058,6.496V148.207L383.283,148.207z"/>
	<path fill="#EEB211" stroke="#EEB211" stroke-width="1.7318" stroke-miterlimit="3.8637" d="M427.207,148.207
		c0,2.884,0,5.268,0.146,6.525c0.098,0.873,0.274,1.541,1.178,1.657c0.421,0.058,1.079,0.117,1.354,0.117l0.245,0.188
		c0,0.146-0.156,0.235-0.491,0.235c-1.647,0-3.541-0.089-3.698-0.089c-0.147,0-2.039,0.089-2.942,0.089
		c-0.334,0-0.481-0.06-0.481-0.235l0.235-0.188l0.902-0.117c0.609-0.116,0.756-0.784,0.873-1.657
		c0.147-1.258,0.147-3.642,0.147-6.525v-12.724l-4.444,0.058c-1.873,0.03-2.59,0.237-3.071,0.961
		c-0.333,0.512-0.422,0.727-0.51,0.933l-0.304,0.303l-0.147-0.272l0.657-3.13l0.304-0.568c0.208,0,0.512,0.303,1.326,0.362
		c0.872,0.088,2.009,0.147,2.373,0.147h11.283c0.961,0,1.657-0.089,2.139-0.147c0.451-0.088,0.716-0.156,0.843-0.156l0.147,0.362
		c0,0.9-0.088,2.981-0.088,3.316l-0.216,0.383c-0.146,0-0.206-0.089-0.235-0.512l-0.03-0.323c-0.128-0.901-0.814-1.599-3.707-1.658
		l-3.787-0.058V148.207L427.207,148.207z"/>
	<path fill="#EEB211" stroke="#EEB211" stroke-width="1.7318" stroke-miterlimit="3.8637" d="M471.738,149.139
		c0-1.629-0.304-2.287-0.696-3.158c-0.206-0.48-4.238-7.104-5.288-8.665c-0.756-1.118-1.512-1.864-2.051-2.227
		c-0.45-0.304-1.021-0.48-1.295-0.48l-0.305-0.216l0.395-0.206c0.567,0,2.834,0.089,2.982,0.089c0.205,0,1.352-0.089,2.521-0.089
		c0.332,0,0.392,0.089,0.392,0.206l-0.45,0.274l-0.393,0.54c0,0.363,0.156,0.726,0.393,1.178c0.479,0.873,4.993,8.634,5.543,9.506
		c0.568-1.266,4.385-7.857,4.994-8.85c0.381-0.629,0.51-1.138,0.51-1.529c0-0.423-0.129-0.757-0.481-0.845l-0.45-0.303l0.48-0.178
		c0.784,0,1.746,0.089,1.981,0.089c0.186,0,2.345-0.089,2.925-0.089l0.391,0.178l-0.391,0.244c-0.334,0-0.903,0.119-1.385,0.422
		c-0.607,0.363-0.933,0.716-1.599,1.53c-0.992,1.207-5.201,8.281-5.75,9.564c-0.45,1.09-0.45,2.023-0.45,3.014v2.59
		c0,0.479,0,1.745,0.098,3.003c0.059,0.873,0.324,1.541,1.227,1.657c0.421,0.058,1.089,0.117,1.354,0.117l0.245,0.188
		c0,0.146-0.147,0.235-0.481,0.235c-1.657,0-3.551-0.089-3.698-0.089c-0.157,0-2.051,0.089-2.953,0.089
		c-0.334,0-0.48-0.06-0.48-0.235l0.235-0.188l0.913-0.117c0.598-0.116,0.862-0.784,0.932-1.657c0.088-1.258,0.088-2.523,0.088-3.003
		V149.139L471.738,149.139z"/>
	<path fill="#003876" stroke="#003876" stroke-width="1.7318" stroke-miterlimit="3.8637" d="M11.277,75.644
		c0-14.697,0-17.336-0.187-20.348c-0.187-3.199-0.942-4.709-4.052-5.367c-0.755-0.187-2.355-0.285-3.199-0.285
		c-0.383,0-0.755-0.187-0.755-0.56c0-0.569,0.471-0.755,1.511-0.755c4.239,0,9.791,0.284,10.36,0.284
		c0.844,0,6.309-0.284,9.134-0.284c1.03,0,1.501,0.186,1.501,0.755c0,0.373-0.373,0.56-0.746,0.56c-0.667,0-1.227,0.098-2.354,0.285
		c-2.551,0.47-3.297,2.07-3.493,5.367c-0.187,3.012-0.187,5.651-0.187,20.348v5.652h0.383c1.6-1.795,18.641-19.122,22.036-22.792
		c2.639-2.737,5.082-5.18,5.082-6.789c0-1.128-0.471-1.688-1.216-1.972c-0.471-0.186-0.854-0.383-0.854-0.756
		c0-0.471,0.471-0.657,1.129-0.657c1.883,0,4.807,0.284,7.063,0.284c0.471,0,6.691-0.284,9.046-0.284
		c1.04,0,1.413,0.186,1.413,0.657c0,0.471-0.187,0.658-0.942,0.658c-1.413,0-3.395,0.471-5.278,1.325
		c-3.856,1.688-5.926,4.042-10.165,8.094c-2.354,2.266-18.749,18.278-20.721,20.632c2.443,2.728,22.036,22.977,25.901,26.559
		c7.908,7.349,9.232,9.241,14.03,10.732c2.541,0.796,5.18,1.227,5.837,1.227c0.658,0,1.227,0.188,1.227,0.569
		c0,0.469-0.471,0.746-2.07,0.746h-4.808c-2.639,0-4.425,0-6.495-0.187c-4.994-0.471-7.349-2.541-11.4-5.739
		c-4.238-3.494-24.204-25.058-28.727-30.611h-0.471v9.222c0,9.046,0,16.483,0.471,20.447c0.285,2.727,0.854,4.796,3.679,5.182
		c1.315,0.185,2.826,0.371,3.669,0.371c0.57,0,0.756,0.284,0.756,0.569c0,0.469-0.471,0.746-1.511,0.746
		c-4.611,0-10.076-0.277-10.832-0.277c-0.755,0-6.209,0.277-9.035,0.277c-1.04,0-1.511-0.187-1.511-0.746
		c0-0.285,0.186-0.569,0.755-0.569c0.843,0,1.972-0.187,2.826-0.371c1.884-0.386,2.355-2.455,2.728-5.182
		c0.471-3.964,0.471-11.401,0.471-20.447V75.644L11.277,75.644z"/>
	<path fill="#003876" stroke="#003876" stroke-width="1.7318" stroke-miterlimit="3.8637" d="M127.086,106.726
		c0.187,7.722,1.128,10.173,3.669,10.92c1.786,0.47,3.866,0.568,4.709,0.568c0.471,0,0.755,0.188,0.755,0.569
		c0,0.56-0.568,0.746-1.697,0.746c-5.367,0-9.134-0.277-9.988-0.277c-0.844,0-4.797,0.277-9.036,0.277
		c-0.942,0-1.511-0.088-1.511-0.746c0-0.381,0.284-0.569,0.755-0.569c0.756,0,2.453-0.099,3.866-0.568
		c2.354-0.658,2.826-3.386,2.826-11.959l0.088-53.972c0-3.669,0.284-4.709,1.04-4.709s2.354,2.08,3.297,3.022
		c1.413,1.599,15.442,16.757,29.953,32.298c9.32,9.988,19.583,21.477,22.604,24.586l-1.04-47.848
		c-0.098-6.123-0.755-8.192-3.669-8.948c-1.697-0.373-3.865-0.471-4.621-0.471c-0.658,0-0.756-0.285-0.756-0.658
		c0-0.568,0.756-0.657,1.884-0.657c4.238,0,8.76,0.284,9.801,0.284c1.03,0,4.141-0.284,8.006-0.284c1.03,0,1.697,0.088,1.697,0.657
		c0,0.373-0.382,0.658-1.04,0.658c-0.47,0-1.128,0-2.256,0.285c-3.11,0.657-3.493,2.728-3.493,8.378l-0.187,55.197
		c0,6.221-0.186,6.691-0.844,6.691c-0.755,0-1.884-1.041-6.877-6.033c-1.04-0.943-14.599-14.785-24.587-25.52
		C139.517,76.871,128.872,65,125.86,61.605L127.086,106.726L127.086,106.726z"/>
	<path fill="#003876" stroke="#003876" stroke-width="1.7318" stroke-miterlimit="3.8637" d="M222.959,92.214
		c0,9.046,0,16.483,0.471,20.447c0.284,2.727,0.854,4.796,3.679,5.182c1.314,0.185,3.385,0.371,4.238,0.371
		c0.56,0,0.756,0.284,0.756,0.569c0,0.469-0.471,0.746-1.512,0.746c-5.179,0-11.114-0.277-11.587-0.277
		c-0.47,0-6.406,0.277-9.232,0.277c-1.03,0-1.501-0.187-1.501-0.746c0-0.285,0.187-0.569,0.756-0.569
		c0.843,0,1.972-0.187,2.826-0.371c1.883-0.386,2.355-2.455,2.727-5.182c0.471-3.964,0.471-11.401,0.471-20.447V52.383
		l-13.941,0.186c-5.837,0.088-8.104,0.756-9.605,3.012c-1.04,1.599-1.324,2.256-1.599,2.923c-0.284,0.746-0.569,0.942-0.942,0.942
		c-0.285,0-0.471-0.285-0.471-0.854c0-0.941,1.883-9.035,2.07-9.792c0.187-0.568,0.559-1.795,0.942-1.795
		c0.657,0,1.599,0.941,4.14,1.138c2.738,0.275,6.318,0.471,7.447,0.471h35.32c6.024,0,8.565-0.942,9.32-0.942
		c0.472,0,0.472,0.56,0.472,1.128c0,2.826-0.285,9.321-0.285,10.361c0,0.844-0.275,1.226-0.658,1.226
		c-0.47,0-0.657-0.284-0.755-1.608l-0.088-1.031c-0.383-2.825-2.541-4.994-11.587-5.18l-11.872-0.186V92.214L222.959,92.214z"/>
	<path fill="#003876" stroke="#003876" stroke-width="1.7318" stroke-miterlimit="3.8637" d="M345.03,92.214
		c0,9.046,0,16.483,0.47,20.447c0.274,2.727,0.844,4.796,3.669,5.182c1.314,0.185,3.395,0.371,4.238,0.371
		c0.568,0,0.757,0.284,0.757,0.569c0,0.469-0.473,0.746-1.513,0.746c-5.18,0-11.115-0.277-11.586-0.277
		c-0.472,0-6.397,0.277-9.224,0.277c-1.039,0-1.51-0.187-1.51-0.746c0-0.285,0.186-0.569,0.755-0.569
		c0.844,0,1.974-0.187,2.825-0.371c1.885-0.386,2.355-2.455,2.729-5.182c0.471-3.964,0.471-11.401,0.471-20.447V52.383
		l-12.618,0.186c-5.836,0.088-8.104,0.756-9.604,3.012c-1.039,1.599-1.325,2.256-1.609,2.923c-0.273,0.746-0.559,0.942-0.94,0.942
		c-0.274,0-0.472-0.285-0.472-0.854c0-0.941,1.885-9.035,2.081-9.792c0.186-0.568,0.56-1.795,0.94-1.795
		c0.658,0,1.6,0.941,4.141,1.138c2.729,0.275,6.309,0.471,7.438,0.471h34.004c3.013,0,5.181-0.284,6.693-0.471
		c1.411-0.284,2.254-0.471,2.629-0.471c0.471,0,0.471,0.56,0.471,1.128c0,2.826-0.274,9.321-0.274,10.361
		c0,0.844-0.286,1.226-0.659,1.226c-0.48,0-0.666-0.284-0.755-1.608l-0.097-1.031c-0.374-2.825-2.543-4.994-11.587-5.18
		l-11.861-0.186V92.214L345.03,92.214z"/>
	<path fill="#003876" stroke="#003876" stroke-width="1.7318" stroke-miterlimit="3.8637" d="M444.77,92.214
		c0,9.046,0,16.483,0.469,20.447c0.285,2.727,0.845,4.796,3.67,5.182c1.324,0.185,3.395,0.371,4.239,0.371
		c0.569,0,0.755,0.284,0.755,0.569c0,0.469-0.471,0.746-1.511,0.746c-5.181,0-11.107-0.277-11.577-0.277
		c-0.471,0-6.407,0.277-9.233,0.277c-1.039,0-1.51-0.187-1.51-0.746c0-0.285,0.186-0.569,0.755-0.569
		c0.845,0,1.982-0.187,2.826-0.371c1.883-0.386,2.354-2.455,2.729-5.182c0.47-3.964,0.47-11.401,0.47-20.447V52.383l-13.932,0.186
		c-5.848,0.088-8.104,0.756-9.615,3.012c-1.03,1.599-1.313,2.256-1.599,2.923c-0.284,0.746-0.56,0.942-0.942,0.942
		c-0.284,0-0.471-0.285-0.471-0.854c0-0.941,1.884-9.035,2.069-9.792c0.196-0.568,0.569-1.795,0.942-1.795
		c0.667,0,1.609,0.941,4.149,1.138c2.729,0.275,6.309,0.471,7.438,0.471h35.32c3.012,0,5.18-0.284,6.691-0.471
		c1.413-0.284,2.255-0.471,2.639-0.471c0.472,0,0.472,0.56,0.472,1.128c0,2.826-0.285,9.321-0.285,10.361
		c0,0.844-0.285,1.226-0.657,1.226c-0.472,0-0.668-0.284-0.755-1.608l-0.099-1.031c-0.373-2.825-2.541-4.994-11.587-5.18
		l-11.86-0.186V92.214L444.77,92.214z"/>
	<path fill="#003876" stroke="#003876" stroke-width="1.7318" stroke-miterlimit="3.8637" d="M73.911,75.644
		c0-14.697,0-17.336-0.197-20.348c-0.186-3.199-0.941-4.709-4.042-5.367c-0.755-0.187-2.354-0.285-3.208-0.285
		c-0.373,0-0.755-0.187-0.755-0.56c0-0.569,0.471-0.755,1.51-0.755c4.239,0,10.174,0.284,10.646,0.284
		c0.657,0,26.725,0,28.884-0.098c1.795-0.098,3.307-0.284,4.052-0.471c0.471-0.099,0.854-0.471,1.324-0.471
		c0.274,0,0.373,0.373,0.373,0.844c0,0.667-0.471,1.795-0.756,4.434c-0.087,0.932-0.274,5.082-0.47,6.211
		c-0.088,0.47-0.285,1.04-0.658,1.04c-0.559,0-0.755-0.471-0.755-1.227c0-0.657-0.088-2.266-0.559-3.395
		c-0.667-1.5-8.928-2.629-14.01-3.197C93.689,52.098,83.417,52,82.388,52c-0.383,0-0.569,0.285-0.569,0.941v26
		c0,0.657,0.097,0.941,0.569,0.941c1.216,0,20.122,0,22.29-0.186c2.267-0.196,3.582-0.383,4.425-1.324
		c0.667-0.756,1.04-1.227,1.413-1.227c0.285,0,0.471,0.197,0.471,0.756c0,0.569-0.471,2.168-0.746,5.279
		c-0.186,1.882-0.383,5.366-0.383,6.023c0,0.756,0,1.795-0.657,1.795c-0.471,0-0.658-0.383-0.658-0.854c0-0.941,0-1.885-0.382-3.11
		c-0.373-1.314-8.545-2.913-12.214-3.295c-2.542-0.276-11.872-0.473-13.471-0.473c-0.471,0-0.657,0.285-0.657,0.669v8.278
		c0,3.209-0.098,14.13,0,16.11c0.285,6.494,1.697,7.722,10.929,7.722c2.443,0,13.912,0,16.355-1.031
		c2.453-1.038,3.581-2.922,4.238-6.788c0.196-1.031,0.383-1.412,0.854-1.412c0.559,0,0.559,0.754,0.559,1.412
		c0,0.756-0.746,7.161-1.216,9.145c-0.657,2.441-1.413,2.441-5.092,2.441c-14.216,0-27.854-0.561-30.581-0.561
		c-0.187,0-1.795,0.091-3.768,0.091c-1.883,0.099-4.052,0.187-5.465,0.187c-1.04,0-1.51-0.187-1.51-0.746
		c0-0.285,0.196-0.569,0.755-0.569c0.854,0,1.982-0.187,2.825-0.371c1.884-0.386,2.355-2.455,2.738-5.182
		c0.471-3.964,0.471-11.401,0.471-20.447V75.644L73.911,75.644z"/>
	<path fill="#003876" stroke="#003876" stroke-width="1.7318" stroke-miterlimit="3.8637" d="M479.304,76.155
		c0-14.688,0-17.327-0.188-20.339c-0.185-3.208-0.939-4.709-4.051-5.366c-0.755-0.196-2.354-0.285-3.198-0.285
		c-0.383,0-0.756-0.187-0.756-0.569c0-0.56,0.471-0.756,1.51-0.756c4.24,0,10.166,0.285,10.637,0.285c0.657,0,26.725,0,28.894-0.088
		c1.785-0.098,3.296-0.285,4.052-0.471c0.471-0.099,0.843-0.481,1.314-0.481c0.284,0,0.384,0.382,0.384,0.854
		c0,0.657-0.472,1.785-0.756,4.425c-0.1,0.941-0.284,5.082-0.472,6.22c-0.098,0.47-0.283,1.03-0.658,1.03
		c-0.568,0-0.754-0.471-0.754-1.217c0-0.667-0.099-2.266-0.569-3.395c-0.657-1.511-8.918-2.639-14.01-3.198
		c-1.6-0.197-11.863-0.285-12.902-0.285c-0.372,0-0.56,0.285-0.56,0.942V79.45c0,0.668,0.089,0.943,0.56,0.943
		c1.227,0,20.133,0,22.301-0.187c2.257-0.188,3.581-0.374,4.425-1.315c0.657-0.756,1.041-1.226,1.412-1.226
		c0.285,0,0.473,0.187,0.473,0.755c0,0.56-0.473,2.168-0.757,5.267c-0.187,1.885-0.372,5.379-0.372,6.035
		c0,0.755,0,1.786-0.658,1.786c-0.471,0-0.667-0.373-0.667-0.844c0-0.942,0-1.884-0.372-3.111
		c-0.373-1.314-8.546-2.923-12.215-3.296c-2.552-0.284-11.87-0.471-13.471-0.471c-0.471,0-0.658,0.285-0.658,0.657v8.29
		c0,3.198-0.097,14.128,0,16.109c0.274,6.495,1.688,7.722,10.921,7.722c2.452,0,13.911,0,16.364-1.04
		c2.453-1.029,3.581-2.915,4.238-6.779c0.187-1.04,0.372-1.413,0.843-1.413c0.569,0,0.569,0.756,0.569,1.413
		c0,0.754-0.755,7.162-1.226,9.134c-0.658,2.453-1.413,2.453-5.083,2.453c-14.226,0-27.854-0.569-30.59-0.569
		c-0.188,0-1.787,0.1-3.768,0.1c-1.884,0.088-4.043,0.185-5.455,0.185c-1.039,0-1.511-0.185-1.511-0.755
		c0-0.284,0.187-0.559,0.757-0.559c0.842,0,1.971-0.195,2.825-0.383c1.883-0.374,2.354-2.443,2.728-5.182
		c0.471-3.953,0.471-11.39,0.471-20.436V76.155L479.304,76.155z"/>
	<path fill="#003876" stroke="#003876" stroke-width="1.7318" stroke-miterlimit="3.8637" d="M273.084,118.479
		c-1.569-0.658-1.677-1.04-1.677-3.581c0-4.709,0.44-8.477,0.56-9.979c0.106-1.04,0.332-1.512,0.892-1.512
		c0.677,0,0.785,0.286,0.785,1.04c0,0.846,0,2.169,0.333,3.484c1.679,6.966,9.065,9.605,16.57,9.605
		c10.745,0,16.004-6.495,16.004-12.528c0-6.495-3.681-12.44-13.305-19.133l-5.043-3.483c-11.861-8.191-14.549-14.028-14.549-20.436
		c0-10.085,8.957-16.953,23.173-16.953c4.366,0,6.406,0.324,9.203,0.893c2.128,0.373,2.914,0.353,3.807,0.353
		c0.901,0,1.128,0.187,1.128,0.658c0,0.472,1.442,4.542,2.324,10.803c0.216,1.49-0.215,2.167-0.774,2.167
		c-0.676,0-0.784-0.47-0.902-1.226c-0.108-1.128-2.256-4.327-2.924-5.367c-0.677-1.03-3.688-4.984-13.991-4.984
		c-7.72,0-13.764,4.042-13.764,10.919c0,5.377,3.129,8.575,13.647,15.826l3.139,2.07c13.205,8.76,16.777,16.778,16.777,24.312
		c0,3.865-1.795,11.029-9.518,15.637c-4.806,2.828-10.851,3.955-16.894,3.955C282.816,121.02,277.677,120.364,273.084,118.479
		L273.084,118.479z"/>
	<path fill-rule="evenodd" clip-rule="evenodd" fill="#003876" d="M377.719,88.36c-0.322,0-0.549-0.186-0.322-0.659l9.556-25.428
		c0.549-1.413,1.088-1.413,1.638,0l10.321,25.428c0.108,0.374,0.108,0.659-0.432,0.659H377.719L377.719,88.36z M362.493,109.168
		c-1.953,4.709-4.121,8.289-9.125,8.859c-0.873,0.088-2.394,0.187-3.158,0.187c-0.542,0-0.972,0.188-0.972,0.569
		c0,0.56,0.646,0.746,2.06,0.746c5.111,0,11.088-0.277,12.283-0.277c1.197,0,5.877,0.277,8.478,0.277
		c0.98,0,1.639-0.187,1.639-0.746c0-0.381-0.334-0.569-1.09-0.569h-1.089c-1.845,0-4.13-0.843-4.13-2.727
		c0-1.698,0.538-3.964,1.52-6.319l6.524-16.669c0.217-0.471,0.55-0.756,1.091-0.756h23.369c0.54,0,0.755,0.187,0.98,0.57
		l10.105,23.174c0.658,1.5,0,2.355-0.646,2.54c-0.443,0.088-0.766,0.286-0.766,0.658c0,0.566,1.196,0.566,3.267,0.657
		c7.495,0.187,15.433,0.187,17.062,0.187c1.198,0,2.179-0.187,2.179-0.746c0-0.47-0.433-0.569-1.09-0.569
		c-1.089,0-2.718-0.099-4.346-0.568c-2.286-0.56-5.436-2.069-9.351-10.45c-6.632-14.312-23.703-53.214-25.332-56.796
		c-1.306-2.923-1.737-3.394-2.395-3.394c-0.646,0-1.088,0.569-2.384,3.679L362.493,109.168L362.493,109.168z"/>
	<path fill="none" stroke="#003876" stroke-width="1.7318" stroke-miterlimit="3.8637" d="M377.719,88.36
		c-0.322,0-0.549-0.186-0.322-0.659l9.556-25.428c0.549-1.413,1.088-1.413,1.638,0l10.321,25.428
		c0.108,0.374,0.108,0.659-0.432,0.659H377.719L377.719,88.36z M362.493,109.168c-1.953,4.709-4.121,8.289-9.125,8.859
		c-0.873,0.088-2.394,0.187-3.158,0.187c-0.542,0-0.972,0.188-0.972,0.569c0,0.56,0.646,0.746,2.06,0.746
		c5.111,0,11.088-0.277,12.283-0.277c1.197,0,5.877,0.277,8.478,0.277c0.98,0,1.639-0.187,1.639-0.746
		c0-0.381-0.334-0.569-1.09-0.569h-1.089c-1.845,0-4.13-0.843-4.13-2.727c0-1.698,0.538-3.964,1.52-6.319l6.524-16.669
		c0.217-0.471,0.55-0.756,1.091-0.756h23.369c0.54,0,0.755,0.187,0.98,0.57l10.105,23.174c0.658,1.5,0,2.355-0.646,2.54
		c-0.443,0.088-0.766,0.286-0.766,0.658c0,0.566,1.196,0.566,3.267,0.657c7.495,0.187,15.433,0.187,17.062,0.187
		c1.198,0,2.179-0.187,2.179-0.746c0-0.47-0.433-0.569-1.09-0.569c-1.089,0-2.718-0.099-4.346-0.568
		c-2.286-0.56-5.436-2.069-9.351-10.45c-6.632-14.312-23.703-53.214-25.332-56.796c-1.306-2.923-1.737-3.394-2.395-3.394
		c-0.646,0-1.088,0.569-2.384,3.679L362.493,109.168L362.493,109.168z"/>
	<path fill-rule="evenodd" clip-rule="evenodd" fill="#003876" d="M526.246,116.876h0.354l0.812,1.476h0.89l-0.898-1.537
		c0.467-0.034,0.846-0.268,0.846-0.915c0-0.804-0.534-1.063-1.441-1.063h-1.312v3.516h0.751V116.876L526.246,116.876z
		 M526.246,116.279v-0.847h0.526c0.285,0,0.674,0.026,0.674,0.39c0,0.388-0.198,0.457-0.535,0.457H526.246L526.246,116.279z
		 M530.063,116.6c0-2.064-1.546-3.266-3.274-3.266c-1.735,0-3.28,1.201-3.28,3.266s1.545,3.264,3.28,3.264
		C528.518,119.864,530.063,118.665,530.063,116.6L530.063,116.6z M529.122,116.6c0,1.502-1.071,2.512-2.333,2.512v-0.008
		c-1.294,0.008-2.34-1.002-2.34-2.504c0-1.504,1.046-2.506,2.34-2.506C528.051,114.094,529.122,115.096,529.122,116.6L529.122,116.6
		z"/>
</g>
</svg>
