<?xml version="1.0" encoding="utf-8"?>
<!-- Generator: Adobe Illustrator 16.0.4, SVG Export Plug-In . SVG Version: 6.00 Build 0)  -->
<!DOCTYPE svg PUBLIC "-//W3C//DTD SVG 1.1//EN" "http://www.w3.org/Graphics/SVG/1.1/DTD/svg11.dtd">
<svg version="1.1" id="Layer_1" xmlns="http://www.w3.org/2000/svg" xmlns:xlink="http://www.w3.org/1999/xlink" x="0px" y="0px"
	 width="534.123px" height="165.333px" viewBox="0 0 534.123 165.333" enable-background="new 0 0 534.123 165.333"
	 xml:space="preserve">
<path fill="#EEB211" stroke="#EEB211" stroke-width="0.5248" stroke-miterlimit="3.8637" d="M41.498,144.015
	c0-4.74,0-5.592-0.069-6.564c-0.059-1.031-0.297-1.527-1.298-1.734l-1.042-0.09l-0.239-0.188c0-0.18,0.15-0.238,0.487-0.238
	c1.367,0,3.224,0.09,3.492,0.09c0.275,0,2.1-0.09,3.012-0.09c0.337,0,0.487,0.059,0.487,0.238l-0.239,0.188
	c-0.216,0-0.396,0.029-0.762,0.09c-0.824,0.117-1.062,0.674-1.131,1.734c-0.059,0.973-0.059,1.824-0.059,6.564v4.264
	c0,4.373,0.971,6.258,2.279,7.508c1.498,1.396,2.867,1.674,4.591,1.674c1.854,0,3.679-0.883,4.78-2.189
	c1.399-1.736,1.766-4.324,1.766-7.447v-3.809c0-4.74,0-5.592-0.059-6.564c-0.071-1.031-0.307-1.527-1.311-1.734l-1.04-0.09
	l-0.239-0.188c0-0.18,0.15-0.238,0.487-0.238c1.367,0,3.044,0.09,3.221,0.09c0.219,0,1.648-0.09,2.56-0.09
	c0.327,0,0.484,0.059,0.484,0.238l-0.249,0.188c-0.207,0-0.396,0-0.752,0.09c-0.824,0.148-1.072,0.674-1.131,1.734
	c-0.059,0.973-0.059,1.824-0.059,6.564v3.254c0,3.291-0.366,6.939-2.796,9.092c-2.191,1.953-4.473,2.252-6.268,2.252
	c-1.03,0-4.104-0.121-6.265-2.162c-1.488-1.43-2.639-3.551-2.639-7.992V144.015z"/>
<path fill="#EEB211" stroke="#EEB211" stroke-width="0.5248" stroke-miterlimit="3.8637" d="M96.414,154.05
	c0.059,2.498,0.366,3.283,1.178,3.529c0.585,0.15,1.251,0.18,1.527,0.18l0.239,0.189c0,0.178-0.177,0.236-0.546,0.236
	c-1.734,0-2.943-0.09-3.222-0.09c-0.278,0-1.546,0.09-2.916,0.09l-0.484-0.236l0.236-0.189c0.249,0,0.794-0.029,1.249-0.18
	c0.765-0.207,0.915-1.09,0.915-3.865l0.029-17.422c0-1.182,0.089-1.518,0.337-1.518l1.06,0.971
	c0.457,0.516,4.989,5.414,9.668,10.432c3.015,3.223,6.327,6.932,7.298,7.932l-0.327-15.447c-0.039-1.975-0.249-2.639-1.19-2.887
	c-0.546-0.119-1.25-0.148-1.488-0.148l-0.249-0.217c0-0.18,0.249-0.209,0.605-0.209c1.37,0,2.838,0.09,3.165,0.09
	c0.337,0,1.338-0.09,2.587-0.09c0.337,0,0.546,0.029,0.546,0.209l-0.327,0.217c-0.16,0-0.367,0-0.735,0.09
	c-1.001,0.207-1.129,0.883-1.129,2.707l-0.062,17.818c0,2.004-0.059,2.16-0.266,2.16c-0.248,0-0.615-0.336-2.223-1.951
	c-0.337-0.297-4.719-4.771-7.942-8.23c-3.519-3.809-6.961-7.635-7.933-8.736L96.414,154.05z"/>
<path fill="#EEB211" stroke="#EEB211" stroke-width="0.5248" stroke-miterlimit="3.8637" d="M154.035,149.371
	c0,2.914,0,5.324,0.158,6.594c0.091,0.883,0.268,1.557,1.18,1.676c0.428,0.059,1.102,0.119,1.37,0.119l0.249,0.189
	c0,0.146-0.16,0.236-0.487,0.236c-1.675,0-3.59-0.09-3.748-0.09c-0.15,0-2.063,0.09-2.976,0.09c-0.337,0-0.487-0.059-0.487-0.236
	l0.239-0.189l0.912-0.119c0.615-0.119,0.765-0.793,0.883-1.676c0.157-1.27,0.157-3.68,0.157-6.594v-5.355
	c0-4.74,0-5.592-0.069-6.564c-0.059-1.031-0.356-1.557-1.03-1.705c-0.337-0.09-0.726-0.119-0.942-0.119l-0.238-0.188
	c0-0.18,0.15-0.238,0.487-0.238c1.001,0,2.914,0.09,3.064,0.09c0.157,0,2.073-0.09,2.982-0.09c0.339,0,0.487,0.059,0.487,0.238
	l-0.249,0.188c-0.209,0-0.386,0.029-0.752,0.09c-0.824,0.148-1.072,0.674-1.131,1.734c-0.059,0.973-0.059,1.824-0.059,6.564V149.371
	z"/>
<path fill="#EEB211" stroke="#EEB211" stroke-width="0.5248" stroke-miterlimit="3.8637" d="M198.557,154.478
	c1.766-4.076,5.84-14.688,6.504-16.879c0.15-0.455,0.28-0.883,0.28-1.15l-0.398-0.703c-0.366-0.119-0.821-0.119-1.161-0.119
	l-0.327-0.188c0-0.18,0.18-0.238,0.667-0.238c1.22,0,2.617,0.09,2.983,0.09c0.18,0,1.488-0.09,2.37-0.09
	c0.327,0,0.517,0.059,0.517,0.209l-0.366,0.217c-0.209,0-0.883,0-1.458,0.367c-0.398,0.268-0.853,0.783-1.677,2.855
	c-0.337,0.854-1.854,4.502-3.401,8.24c-1.854,4.443-3.221,7.725-3.927,9.213c-0.854,1.824-0.972,2.311-1.279,2.311
	c-0.366,0-0.517-0.428-1.092-1.885l-7.446-18.643c-0.674-1.695-1.131-2.031-2.191-2.34c-0.458-0.119-0.974-0.119-1.161-0.119
	l-0.238-0.217c0-0.18,0.297-0.209,0.784-0.209c1.465,0,3.192,0.09,3.558,0.09c0.308,0,1.677-0.09,2.828-0.09
	c0.554,0,0.821,0.059,0.821,0.209l-0.297,0.217c-0.337,0-0.88,0.029-1.158,0.148c-0.337,0.148-0.398,0.396-0.398,0.615
	c0,0.387,0.367,1.328,0.824,2.518L198.557,154.478z"/>
<path fill="#EEB211" stroke="#EEB211" stroke-width="0.5248" stroke-miterlimit="3.8637" d="M241.614,144.015
	c0-4.74,0-5.592-0.062-6.564c-0.059-1.031-0.305-1.527-1.308-1.734l-1.03-0.09l-0.248-0.188c0-0.18,0.156-0.238,0.486-0.238
	c1.367,0,3.29,0.09,3.439,0.09c0.21,0,6.269,0,6.962-0.031c0.575-0.029,1.069-0.088,1.308-0.148l0.429-0.16l0.118,0.279
	c0,0.209-0.15,0.574-0.238,1.428c-0.03,0.309-0.089,1.645-0.16,2.004l-0.207,0.336l-0.248-0.396c0-0.209-0.029-0.723-0.18-1.09
	c-0.207-0.486-0.514-0.854-2.161-1.033c-0.515-0.059-3.826-0.088-4.163-0.088l-0.18,0.297v8.398l0.18,0.299
	c0.396,0,4.133,0,4.839-0.061c0.724-0.059,1.148-0.119,1.427-0.426l0.457-0.396l0.147,0.248c0,0.178-0.147,0.695-0.235,1.705
	c-0.062,0.605-0.131,1.727-0.131,1.943l-0.209,0.574l-0.217-0.275c0-0.299,0-0.605-0.12-1.002c-0.118-0.426-0.396-0.943-1.576-1.061
	c-0.823-0.092-3.839-0.15-4.353-0.15l-0.209,0.209v2.678c0,1.031-0.029,4.561,0,5.195c0.088,2.102,0.546,2.5,3.521,2.5
	c0.791,0,2.132,0,2.924-0.338c0.794-0.336,1.15-0.941,1.369-2.191c0.059-0.328,0.118-0.457,0.268-0.457l0.188,0.457
	c0,0.248-0.248,2.311-0.396,2.953c-0.209,0.785-0.454,0.785-1.645,0.785c-4.594,0-6.625-0.18-7.508-0.18
	c-0.059,0-0.574,0.031-1.219,0.031c-0.605,0.029-1.311,0.059-1.766,0.059c-0.327,0-0.484-0.059-0.484-0.236l0.246-0.189l0.912-0.119
	c0.604-0.119,0.765-0.793,0.883-1.676c0.15-1.27,0.15-3.68,0.15-6.594V144.015z"/>
<path fill="#EEB211" stroke="#EEB211" stroke-width="0.5248" stroke-miterlimit="3.8637" d="M335.339,157.789
	c-0.428-0.209-0.457-0.328-0.457-1.15c0-1.518,0.121-2.736,0.15-3.223c0.029-0.336,0.088-0.486,0.236-0.486l0.219,0.328
	c0,0.277,0,0.705,0.088,1.131c0.457,2.25,2.461,3.102,4.502,3.102c2.916,0,4.344-2.1,4.344-4.045c0-2.102-0.871-3.311-3.49-5.473
	l-1.369-1.131c-3.221-2.637-3.955-4.531-3.955-6.594c0-3.252,2.43-5.473,6.295-5.473c1.191,0,2.074,0.117,2.828,0.307
	c0.574,0.119,0.822,0.148,1.061,0.148l0.307,0.209c0,0.158-0.117,1.16-0.117,3.223c0,0.494-0.062,0.703-0.219,0.703l-0.238-0.396
	c-0.029-0.367-0.219-1.18-0.396-1.518c-0.18-0.338-1-1.617-3.799-1.617c-2.104,0-3.748,1.311-3.748,3.531
	c0,1.736,0.854,2.768,3.719,5.107l0.854,0.674c3.58,2.826,4.434,4.709,4.434,7.139c0,1.25-0.488,3.561-2.59,5.049
	c-1.299,0.912-2.945,1.279-4.592,1.279C337.976,158.613,336.58,158.402,335.339,157.789z"/>
<path fill="#EEB211" stroke="#EEB211" stroke-width="0.5248" stroke-miterlimit="3.8637" d="M384.263,149.371
	c0,2.914,0,5.324,0.15,6.594c0.088,0.883,0.277,1.557,1.189,1.676c0.426,0.059,1.09,0.119,1.367,0.119l0.238,0.189
	c0,0.146-0.146,0.236-0.484,0.236c-1.676,0-3.59-0.09-3.74-0.09c-0.146,0-2.072,0.09-2.984,0.09c-0.326,0-0.484-0.059-0.484-0.236
	l0.248-0.189l0.912-0.119c0.605-0.119,0.764-0.793,0.881-1.676c0.15-1.27,0.15-3.68,0.15-6.594v-5.355c0-4.74,0-5.592-0.059-6.564
	c-0.061-1.031-0.367-1.557-1.033-1.705c-0.338-0.09-0.732-0.119-0.941-0.119l-0.246-0.188c0-0.18,0.156-0.238,0.484-0.238
	c1,0,2.926,0.09,3.072,0.09c0.15,0,2.064-0.09,2.986-0.09c0.326,0,0.486,0.059,0.486,0.238l-0.248,0.188
	c-0.209,0-0.398,0.029-0.766,0.09c-0.811,0.148-1.059,0.674-1.117,1.734c-0.062,0.973-0.062,1.824-0.062,6.564V149.371z"/>
<path fill="#EEB211" stroke="#EEB211" stroke-width="0.5248" stroke-miterlimit="3.8637" d="M428.658,149.371
	c0,2.914,0,5.324,0.15,6.594c0.098,0.883,0.277,1.557,1.189,1.676c0.426,0.059,1.09,0.119,1.367,0.119l0.248,0.189
	c0,0.146-0.158,0.236-0.496,0.236c-1.664,0-3.578-0.09-3.738-0.09c-0.148,0-2.062,0.09-2.975,0.09c-0.338,0-0.484-0.059-0.484-0.236
	l0.236-0.189l0.914-0.119c0.615-0.119,0.762-0.793,0.881-1.676c0.15-1.27,0.15-3.68,0.15-6.594v-12.861l-4.492,0.059
	c-1.895,0.031-2.617,0.238-3.104,0.973c-0.338,0.516-0.428,0.732-0.518,0.941l-0.307,0.309l-0.148-0.279l0.664-3.162l0.309-0.574
	c0.205,0,0.516,0.307,1.338,0.365c0.883,0.09,2.033,0.15,2.398,0.15h11.406c0.971,0,1.674-0.09,2.16-0.15
	c0.455-0.09,0.723-0.158,0.854-0.158l0.148,0.367c0,0.912-0.09,3.014-0.09,3.352l-0.219,0.387c-0.15,0-0.209-0.09-0.238-0.516
	l-0.029-0.328c-0.127-0.912-0.822-1.615-3.748-1.676l-3.828-0.059V149.371z"/>
<path fill="#EEB211" stroke="#EEB211" stroke-width="0.5248" stroke-miterlimit="3.8637" d="M473.667,150.312
	c0-1.646-0.309-2.311-0.703-3.193c-0.209-0.484-4.285-7.178-5.346-8.756c-0.764-1.129-1.527-1.885-2.074-2.25
	c-0.455-0.309-1.029-0.486-1.309-0.486l-0.307-0.217l0.396-0.209c0.574,0,2.867,0.09,3.014,0.09c0.209,0,1.371-0.09,2.551-0.09
	c0.336,0,0.396,0.09,0.396,0.209l-0.459,0.277l-0.395,0.545c0,0.367,0.16,0.734,0.395,1.189c0.488,0.881,5.049,8.727,5.605,9.609
	c0.574-1.279,4.434-7.943,5.047-8.945c0.387-0.635,0.514-1.15,0.514-1.547c0-0.426-0.127-0.764-0.484-0.852l-0.457-0.307l0.488-0.18
	c0.791,0,1.764,0.09,2,0.09c0.189,0,2.371-0.09,2.957-0.09l0.395,0.18l-0.395,0.246c-0.338,0-0.912,0.119-1.396,0.428
	c-0.615,0.365-0.945,0.723-1.619,1.545c-1,1.221-5.254,8.369-5.811,9.67c-0.455,1.1-0.455,2.041-0.455,3.043v2.617
	c0,0.486,0,1.766,0.1,3.035c0.059,0.883,0.326,1.557,1.238,1.676c0.426,0.059,1.102,0.119,1.367,0.119l0.248,0.189
	c0,0.146-0.146,0.236-0.484,0.236c-1.676,0-3.59-0.09-3.74-0.09c-0.156,0-2.072,0.09-2.982,0.09c-0.34,0-0.486-0.059-0.486-0.236
	l0.238-0.189l0.922-0.119c0.605-0.119,0.873-0.793,0.941-1.676c0.09-1.27,0.09-2.549,0.09-3.035V150.312z"/>
<path fill="#EEB211" stroke="#EEB211" stroke-width="0.5248" stroke-miterlimit="3.8637" d="M276.916,36.497
	c0,0,0.941-0.913,3.291-1.131c2.695-0.249,4.164-1.398,5.164-2.658c1.004-1.249,0.965-2.587,2.074-3.659
	c1.131-1.09,2.111-1.774,3.471-1.923c1.377-0.148,2.43,0.049,3.52-0.585c1.092-0.634,1.131-0.645,1.131-0.645
	s-0.795,0.268-1.805,0.347c-1,0.088-2.547-0.327-3.471-0.327c-0.922,0-2.887,0.416-4.018,1.458c-1.129,1.05-2.221,2.727-3.352,3.182
	c-1.129,0.458-2.695,0.903-3.508,0.655c-1.449-0.446-2.014-0.773-3.273-0.616c-1.25,0.169-1.605,0.387-1.605,0.387l12.99-16.678
	L270.14,26.769c0,0,0.02-0.774,0.525-1.864c0.498-1.082,2.283-2.223,2.549-4.037c0.229-1.548,0.359-2.509-0.504-4.285
	c-0.746-1.576-0.664-2.894-0.479-3.876c0.209-1.11,0.902-2.261,1.527-2.866c1.072-1.03,1.32-1.636,1.527-2.41l0.189-0.752
	c0,0-0.039,0.317-0.834,1.318c-0.854,1.071-1.348,0.794-2.391,1.766c-1.049,0.962-1.795,2.152-2.131,3.55
	c-0.396,1.636,0.35,2.271,0.131,3.937c-0.219,1.568-0.367,1.885-1.221,3.054c-0.734,1.002-1.271,1.22-2.379,1.805
	c-0.883,0.456-1.626,1.081-2.103,2.211l-3.264-20.397l-3.093,20.564c0,0-1.129-1.755-1.171-2.34
	c-0.059-0.754-0.108-3.223-1.507-4.671c-1.171-1.21-1.825-1.547-3.768-2.279c-1.141-0.428-2.449-1.775-3.015-2.966
	c-0.565-1.2-0.458-3.391-0.624-3.897c-0.168-0.505-0.923-1.694-0.923-1.694s0.415,1.03,0.376,2.031
	c-0.039,1.002-0.545,2.758-0.415,3.472c0.128,0.713,0.209,2.181,1.755,3.599c1.547,1.428,2.182,1.26,3.143,3.144
	c0.962,1.883,0.795,2.845,0.455,3.888c-0.336,1.05-0.713,2.052-0.376,2.934c0.337,0.873,0.327,1.062,0.327,1.062l-17.373-12.464
	l12.863,16.668c0,0-1.657-0.148-2.55-0.942c-1.239-1.081-2.073-1.626-3.519-2.022c0,0-1.359-0.487-3.322,0.099
	c-1.975,0.585-1.599,0.734-2.936,0.942c-1.341,0.209-3.49-0.118-4.542-1.001c-1.041-0.883-1.903-1.656-2.658-1.903
	c-0.752-0.249-1.357-0.317-1.357-0.317s1.209,0.426,2.132,1.467c0.942,1.071,1.17,2.062,2.508,2.807c1.409,0.772,2.599,1.08,3.858,1
	c1.249-0.088,1.288-0.386,2.963-0.188c0.905,0.1,2.658,0.793,3.106,1.319c1.178,1.408,1.902,2.776,2.469,3.301
	c0.713,0.675,1.586,0.963,1.586,0.963l-21.389,3.559c0,0,20.198-1.339,22.836-1.468c2.639-0.119,9.856-0.685,14.25-0.624
	c4.393,0.07,7.03,0.258,9.973,0.436c2.957,0.188,27.438,1.746,27.438,1.746L276.916,36.497z"/>
<path fill-rule="evenodd" clip-rule="evenodd" fill="#EEB211" stroke="#EEB211" stroke-width="0.5248" stroke-miterlimit="3.8637" d="
	M289.697,136.716l0.236-0.365c0.307-0.09,1.121-0.18,2.033-0.18c3.264,0,5.264,2.281,5.264,6.078c0,2.312-0.791,3.957-1.854,4.691
	c-0.703,0.484-1.547,0.574-2.279,0.574c-1.34,0-2.736-0.217-3.193-0.484l-0.207-0.367V136.716z M287.257,149.371
	c0,2.914,0,5.324-0.15,6.594c-0.127,0.883-0.277,1.557-0.883,1.676l-0.912,0.119l-0.246,0.189c0,0.178,0.158,0.236,0.484,0.236
	c0.912,0,2.836-0.09,2.865-0.09c0.15,0,2.062,0.09,3.74,0.09c0.336,0,0.484-0.09,0.484-0.236l-0.246-0.189
	c-0.268,0-0.945-0.061-1.369-0.119c-0.912-0.119-1.092-0.793-1.182-1.676c-0.146-1.27-0.146-3.68-0.146-6.594v-0.734l0.207-0.238
	l3.738,0.061l0.396,0.178c0.605,0.793,2.043,2.836,3.312,4.502c1.736,2.281,2.797,3.768,4.104,4.473
	c0.795,0.426,1.557,0.574,3.254,0.574h2.162c0.545,0,0.734-0.059,0.734-0.236l-0.279-0.189c-0.178,0-0.604,0-1.18-0.09
	c-0.764-0.119-2.072-0.455-3.719-2.189c-1.754-1.885-3.826-4.594-6.314-7.785c2.736-2.52,3.678-4.77,3.678-7.021
	c0-2.102-1.34-3.59-2.102-4.135c-1.607-1.158-3.65-1.338-5.562-1.338c-0.943,0-3.254,0.09-3.59,0.09c-0.15,0-2.074-0.09-3.441-0.09
	c-0.328,0-0.486,0.059-0.486,0.238l0.248,0.188l1.031,0.09c1,0.207,1.248,0.703,1.307,1.734c0.062,0.973,0.062,1.824,0.062,6.564
	V149.371z"/>
<path fill-rule="evenodd" clip-rule="evenodd" fill="#FFFFFF" stroke="#FFFFFF" stroke-width="0.125" stroke-miterlimit="3.8637" d="
	M529.365,121.3c2.631,0,4.758-2.141,4.758-4.783c0-2.62-2.127-4.761-4.758-4.761c-2.643,0-4.785,2.142-4.785,4.761
	C524.58,119.16,526.722,121.3,529.365,121.3z M529.365,120.671c-2.328,0-4.027-1.814-4.027-4.154c0-2.318,1.699-4.131,4.027-4.131
	c2.316,0,4.004,1.813,4.004,4.131C533.369,118.857,531.681,120.671,529.365,120.671z M530.132,116.73
	c0.943-0.025,1.674-0.414,1.674-1.461c0-0.88-0.479-1.411-1.889-1.411h-2.328v5.327h0.654v-2.455h1.195l1.523,2.455h0.783
	L530.132,116.73z M528.244,116.214v-1.889h1.525c0.652,0,1.332,0.102,1.332,0.932c0,1.082-1.107,0.957-1.861,0.957H528.244z"/>
<g>
	<path fill="#FFFFFF" stroke="#FFFFFF" stroke-width="0.5248" stroke-miterlimit="3.8637" d="M8.279,76.032
		c0-14.854,0-17.522-0.189-20.567c-0.187-3.232-0.952-4.759-4.094-5.424c-0.765-0.187-2.38-0.288-3.233-0.288
		C0.376,49.753,0,49.566,0,49.188c0-0.575,0.475-0.763,1.527-0.763c4.284,0,9.895,0.288,10.471,0.288
		c0.853,0,6.376-0.288,9.231-0.288c1.042,0,1.52,0.188,1.52,0.763c0,0.378-0.379,0.564-0.755,0.564c-0.674,0-1.239,0.101-2.38,0.288
		c-2.577,0.477-3.332,2.092-3.529,5.424c-0.189,3.044-0.189,5.712-0.189,20.567v5.711h0.386
		c1.618-1.815,18.841-19.326,22.271-23.034c2.668-2.767,5.137-5.237,5.137-6.863c0-1.14-0.475-1.705-1.229-1.992
		c-0.475-0.189-0.863-0.389-0.863-0.765c0-0.476,0.477-0.664,1.141-0.664c1.903,0,4.859,0.288,7.141,0.288
		c0.475,0,6.762-0.288,9.142-0.288c1.05,0,1.426,0.188,1.426,0.664c0,0.477-0.187,0.664-0.952,0.664c-1.426,0-3.43,0.477-5.333,1.34
		c-3.897,1.704-5.99,4.084-10.273,8.18c-2.38,2.291-18.949,18.473-20.943,20.854c2.469,2.756,22.271,23.224,26.178,26.842
		c7.992,7.429,9.332,9.341,14.181,10.849c2.567,0.803,5.235,1.238,5.899,1.238c0.664,0,1.24,0.189,1.24,0.576
		c0,0.477-0.475,0.754-2.093,0.754h-4.859c-2.666,0-4.471,0-6.563-0.188c-5.048-0.479-7.429-2.57-11.523-5.801
		c-4.283-3.531-24.462-25.327-29.036-30.939h-0.474v9.322c0,9.143,0,16.658,0.474,20.664c0.291,2.758,0.863,4.848,3.721,5.237
		c1.328,0.188,2.855,0.375,3.708,0.375c0.576,0,0.765,0.289,0.765,0.576c0,0.477-0.477,0.754-1.529,0.754
		c-4.66,0-10.183-0.277-10.947-0.277c-0.762,0-6.275,0.277-9.133,0.277c-1.05,0-1.527-0.188-1.527-0.754
		c0-0.287,0.189-0.576,0.765-0.576c0.854,0,1.992-0.188,2.855-0.375c1.906-0.389,2.38-2.479,2.756-5.237
		c0.477-4.006,0.477-11.521,0.477-20.664V76.032z"/>
	<path fill="#FFFFFF" stroke="#FFFFFF" stroke-width="0.5248" stroke-miterlimit="3.8637" d="M125.326,107.445
		c0.189,7.804,1.141,10.283,3.711,11.037c1.805,0.477,3.907,0.574,4.758,0.574c0.477,0,0.765,0.189,0.765,0.576
		c0,0.566-0.576,0.754-1.717,0.754c-5.422,0-9.231-0.277-10.094-0.277c-0.854,0-4.849,0.277-9.133,0.277
		c-0.952,0-1.527-0.09-1.527-0.754c0-0.387,0.288-0.576,0.765-0.576c0.762,0,2.479-0.098,3.905-0.574
		c2.38-0.664,2.857-3.422,2.857-12.087l0.088-54.549c0-3.708,0.288-4.759,1.053-4.759c0.762,0,2.377,2.102,3.329,3.054
		c1.429,1.617,15.61,16.936,30.275,32.644c9.42,10.094,19.792,21.706,22.846,24.85l-1.05-48.361
		c-0.101-6.188-0.765-8.279-3.71-9.043c-1.714-0.376-3.907-0.477-4.669-0.477c-0.664,0-0.763-0.288-0.763-0.664
		c0-0.576,0.763-0.664,1.903-0.664c4.284,0,8.855,0.288,9.905,0.288c1.042,0,4.185-0.288,8.093-0.288
		c1.04,0,1.714,0.088,1.714,0.664c0,0.376-0.386,0.664-1.05,0.664c-0.475,0-1.141,0-2.279,0.288
		c-3.145,0.665-3.531,2.756-3.531,8.469l-0.189,55.788c0,6.286-0.187,6.762-0.851,6.762c-0.765,0-1.906-1.051-6.952-6.1
		c-1.052-0.951-14.756-14.942-24.85-25.79c-11.036-11.899-21.796-23.899-24.841-27.329L125.326,107.445z"/>
	<path fill="#FFFFFF" stroke="#FFFFFF" stroke-width="0.5248" stroke-miterlimit="3.8637" d="M222.227,92.78
		c0,9.143,0,16.658,0.475,20.664c0.29,2.758,0.863,4.848,3.72,5.237c1.328,0.188,3.421,0.375,4.284,0.375
		c0.565,0,0.762,0.289,0.762,0.576c0,0.477-0.475,0.754-1.527,0.754c-5.235,0-11.235-0.277-11.709-0.277
		c-0.477,0-6.477,0.277-9.332,0.277c-1.04,0-1.517-0.188-1.517-0.754c0-0.287,0.189-0.576,0.765-0.576
		c0.854,0,1.992-0.188,2.855-0.375c1.903-0.389,2.38-2.479,2.756-5.237c0.477-4.006,0.477-11.521,0.477-20.664v-40.26l-14.092,0.188
		c-5.899,0.088-8.188,0.763-9.708,3.044c-1.05,1.616-1.338,2.281-1.616,2.956c-0.288,0.752-0.575,0.951-0.952,0.951
		c-0.288,0-0.477-0.288-0.477-0.863c0-0.952,1.906-9.133,2.093-9.896c0.189-0.576,0.565-1.815,0.952-1.815
		c0.667,0,1.618,0.953,4.185,1.149c2.767,0.278,6.386,0.477,7.527,0.477h35.697c6.089,0,8.658-0.952,9.421-0.952
		c0.477,0,0.477,0.564,0.477,1.14c0,2.856-0.287,9.42-0.287,10.471c0,0.853-0.278,1.239-0.664,1.239
		c-0.478,0-0.664-0.288-0.766-1.625l-0.088-1.042c-0.387-2.855-2.57-5.047-11.712-5.235l-11.998-0.188V92.78z"/>
	<path fill="#FFFFFF" stroke="#FFFFFF" stroke-width="0.5248" stroke-miterlimit="3.8637" d="M345.601,92.78
		c0,9.143,0,16.658,0.477,20.664c0.279,2.758,0.854,4.848,3.709,5.237c1.328,0.188,3.43,0.375,4.283,0.375
		c0.576,0,0.766,0.289,0.766,0.576c0,0.477-0.479,0.754-1.527,0.754c-5.238,0-11.236-0.277-11.713-0.277
		c-0.475,0-6.465,0.277-9.322,0.277c-1.049,0-1.523-0.188-1.523-0.754c0-0.287,0.186-0.576,0.762-0.576
		c0.854,0,1.994-0.188,2.855-0.375c1.904-0.389,2.379-2.479,2.756-5.237c0.477-4.006,0.477-11.521,0.477-20.664v-40.26
		l-12.752,0.188c-5.898,0.088-8.191,0.763-9.707,3.044c-1.051,1.616-1.338,2.281-1.627,2.956c-0.277,0.752-0.564,0.951-0.951,0.951
		c-0.277,0-0.477-0.288-0.477-0.863c0-0.952,1.902-9.133,2.102-9.896c0.189-0.576,0.566-1.815,0.953-1.815
		c0.664,0,1.617,0.953,4.184,1.149c2.758,0.278,6.377,0.477,7.518,0.477h34.369c3.045,0,5.234-0.288,6.762-0.477
		c1.428-0.287,2.279-0.475,2.658-0.475c0.475,0,0.475,0.564,0.475,1.14c0,2.856-0.277,9.42-0.277,10.471
		c0,0.853-0.287,1.239-0.664,1.239c-0.484,0-0.674-0.288-0.764-1.625l-0.1-1.042c-0.375-2.855-2.566-5.047-11.709-5.235
		l-11.99-0.188V92.78z"/>
	<path fill="#FFFFFF" stroke="#FFFFFF" stroke-width="0.5248" stroke-miterlimit="3.8637" d="M446.41,92.78
		c0,9.143,0,16.658,0.475,20.664c0.287,2.758,0.854,4.848,3.707,5.237c1.34,0.188,3.434,0.375,4.283,0.375
		c0.576,0,0.766,0.289,0.766,0.576c0,0.477-0.477,0.754-1.527,0.754c-5.234,0-11.225-0.277-11.701-0.277
		c-0.475,0-6.475,0.277-9.33,0.277c-1.053,0-1.527-0.188-1.527-0.754c0-0.287,0.188-0.576,0.762-0.576
		c0.854,0,2.006-0.188,2.857-0.375c1.904-0.389,2.379-2.479,2.758-5.237c0.475-4.006,0.475-11.521,0.475-20.664v-40.26l-14.08,0.188
		c-5.91,0.088-8.191,0.763-9.719,3.044c-1.039,1.616-1.328,2.281-1.615,2.956c-0.287,0.752-0.566,0.951-0.951,0.951
		c-0.289,0-0.477-0.288-0.477-0.863c0-0.952,1.902-9.133,2.092-9.896c0.199-0.576,0.576-1.815,0.951-1.815
		c0.674,0,1.625,0.953,4.195,1.149c2.756,0.278,6.377,0.477,7.518,0.477h35.697c3.043,0,5.234-0.288,6.762-0.477
		c1.428-0.287,2.281-0.475,2.668-0.475c0.477,0,0.477,0.564,0.477,1.14c0,2.856-0.291,9.42-0.291,10.471
		c0,0.853-0.285,1.239-0.662,1.239c-0.475,0-0.674-0.288-0.764-1.625l-0.098-1.042c-0.379-2.855-2.57-5.047-11.713-5.235
		l-11.986-0.188V92.78z"/>
	<path fill="#FFFFFF" stroke="#FFFFFF" stroke-width="0.5248" stroke-miterlimit="3.8637" d="M71.583,76.032
		c0-14.854,0-17.522-0.199-20.567c-0.187-3.232-0.952-4.759-4.084-5.424c-0.765-0.187-2.38-0.288-3.244-0.288
		c-0.376,0-0.762-0.187-0.762-0.564c0-0.575,0.475-0.763,1.527-0.763c4.284,0,10.284,0.288,10.758,0.288
		c0.664,0,27.012,0,29.193-0.1c1.814-0.1,3.342-0.288,4.094-0.476c0.477-0.099,0.863-0.476,1.34-0.476
		c0.278,0,0.376,0.377,0.376,0.852c0,0.675-0.477,1.815-0.762,4.483c-0.091,0.942-0.278,5.137-0.477,6.276
		c-0.089,0.476-0.288,1.051-0.664,1.051c-0.565,0-0.765-0.476-0.765-1.239c0-0.664-0.089-2.291-0.563-3.43
		c-0.676-1.517-9.025-2.658-14.162-3.234c-1.615-0.188-11.997-0.288-13.04-0.288c-0.386,0-0.576,0.288-0.576,0.952v26.278
		c0,0.665,0.099,0.953,0.576,0.953c1.229,0,20.338,0,22.529-0.189c2.292-0.198,3.62-0.386,4.473-1.338
		c0.673-0.765,1.05-1.239,1.429-1.239c0.285,0,0.474,0.197,0.474,0.762c0,0.575-0.474,2.191-0.752,5.336
		c-0.189,1.903-0.388,5.423-0.388,6.088c0,0.762,0,1.813-0.664,1.813c-0.475,0-0.664-0.387-0.664-0.862c0-0.952,0-1.904-0.386-3.144
		c-0.379-1.329-8.639-2.945-12.347-3.332c-2.567-0.278-11.997-0.476-13.615-0.476c-0.475,0-0.664,0.288-0.664,0.674v8.37
		c0,3.241-0.098,14.278,0,16.281c0.288,6.565,1.716,7.805,11.046,7.805c2.471,0,14.062,0,16.532-1.043
		c2.479-1.051,3.62-2.954,4.283-6.861c0.199-1.042,0.386-1.429,0.863-1.429c0.565,0,0.565,0.765,0.565,1.429
		c0,0.764-0.755,7.24-1.229,9.24c-0.667,2.471-1.429,2.471-5.146,2.471c-14.368,0-28.153-0.564-30.909-0.564
		c-0.189,0-1.815,0.09-3.807,0.09c-1.906,0.098-4.097,0.188-5.525,0.188c-1.05,0-1.527-0.188-1.527-0.754
		c0-0.287,0.199-0.576,0.765-0.576c0.863,0,2.001-0.188,2.855-0.375c1.906-0.389,2.38-2.479,2.766-5.237
		c0.477-4.006,0.477-11.521,0.477-20.664V76.032z"/>
	<path fill="#FFFFFF" stroke="#FFFFFF" stroke-width="0.5248" stroke-miterlimit="3.8637" d="M481.312,76.546
		c0-14.843,0-17.51-0.188-20.554c-0.189-3.244-0.953-4.761-4.096-5.425c-0.764-0.199-2.381-0.288-3.232-0.288
		c-0.389,0-0.764-0.188-0.764-0.575c0-0.566,0.477-0.763,1.527-0.763c4.283,0,10.273,0.287,10.75,0.287c0.664,0,27.01,0,29.201-0.09
		c1.805-0.098,3.33-0.288,4.096-0.474c0.475-0.1,0.854-0.487,1.328-0.487c0.287,0,0.387,0.388,0.387,0.863
		c0,0.664-0.475,1.805-0.764,4.473c-0.098,0.952-0.287,5.136-0.477,6.285c-0.098,0.477-0.285,1.043-0.664,1.043
		c-0.576,0-0.762-0.478-0.762-1.229c0-0.675-0.102-2.292-0.576-3.432c-0.664-1.527-9.014-2.667-14.16-3.232
		c-1.617-0.199-11.988-0.288-13.041-0.288c-0.375,0-0.564,0.288-0.564,0.952v26.267c0,0.675,0.09,0.953,0.564,0.953
		c1.24,0,20.348,0,22.539-0.188c2.281-0.189,3.619-0.377,4.473-1.329c0.664-0.763,1.053-1.239,1.43-1.239
		c0.287,0,0.477,0.188,0.477,0.764c0,0.565-0.477,2.191-0.766,5.325c-0.189,1.903-0.375,5.433-0.375,6.098
		c0,0.764,0,1.804-0.664,1.804c-0.477,0-0.676-0.376-0.676-0.852c0-0.952,0-1.905-0.377-3.144
		c-0.377-1.328-8.637-2.955-12.344-3.332c-2.58-0.288-12-0.475-13.615-0.475c-0.477,0-0.666,0.288-0.666,0.664v8.379
		c0,3.232-0.1,14.278,0,16.282c0.279,6.565,1.705,7.803,11.037,7.803c2.479,0,14.061,0,16.539-1.051
		c2.479-1.039,3.619-2.944,4.283-6.852c0.189-1.051,0.377-1.427,0.854-1.427c0.576,0,0.576,0.763,0.576,1.427
		c0,0.764-0.762,7.239-1.24,9.233c-0.664,2.479-1.428,2.479-5.137,2.479c-14.377,0-28.152-0.576-30.916-0.576
		c-0.189,0-1.805,0.1-3.809,0.1c-1.904,0.09-4.084,0.189-5.514,0.189c-1.053,0-1.527-0.189-1.527-0.764
		c0-0.287,0.188-0.564,0.764-0.564c0.852,0,1.994-0.199,2.857-0.389c1.902-0.377,2.379-2.469,2.756-5.236
		c0.475-3.995,0.475-11.512,0.475-20.654V76.546z"/>
	<path fill="#FFFFFF" stroke="#FFFFFF" stroke-width="0.5248" stroke-miterlimit="3.8637" d="M272.886,119.326
		c-1.586-0.664-1.693-1.053-1.693-3.621c0-4.758,0.445-8.567,0.564-10.083c0.109-1.052,0.338-1.527,0.902-1.527
		c0.684,0,0.793,0.288,0.793,1.05c0,0.854,0,2.192,0.336,3.521c1.697,7.04,9.162,9.708,16.752,9.708
		c10.855,0,16.17-6.565,16.17-12.663c0-6.563-3.719-12.573-13.445-19.337l-5.096-3.52c-11.99-8.279-14.707-14.18-14.707-20.655
		c0-10.193,9.055-17.134,23.422-17.134c4.414,0,6.477,0.327,9.303,0.902c2.15,0.376,2.943,0.356,3.848,0.356
		c0.91,0,1.139,0.189,1.139,0.664c0,0.477,1.457,4.591,2.35,10.917c0.219,1.508-0.219,2.191-0.783,2.191
		c-0.684,0-0.793-0.475-0.912-1.239c-0.109-1.14-2.279-4.372-2.953-5.423c-0.688-1.042-3.73-5.038-14.143-5.038
		c-7.803,0-13.91,4.084-13.91,11.036c0,5.435,3.162,8.667,13.793,15.996l3.172,2.091c13.348,8.854,16.957,16.956,16.957,24.571
		c0,3.907-1.814,11.146-9.619,15.806c-4.859,2.855-10.967,3.996-17.076,3.996C282.726,121.892,277.529,121.228,272.886,119.326z"/>
	
		<path fill-rule="evenodd" clip-rule="evenodd" fill="#FFFFFF" stroke="#FFFFFF" stroke-width="0.5248" stroke-miterlimit="3.8637" d="
		M378.642,88.883c-0.326,0-0.555-0.189-0.326-0.664l9.658-25.704c0.553-1.427,1.1-1.427,1.654,0l10.432,25.704
		c0.111,0.376,0.111,0.664-0.436,0.664H378.642z M363.251,109.914c-1.973,4.761-4.162,8.378-9.221,8.955
		c-0.883,0.09-2.42,0.188-3.191,0.188c-0.547,0-0.984,0.189-0.984,0.576c0,0.566,0.654,0.754,2.082,0.754
		c5.168,0,11.207-0.277,12.416-0.277c1.211,0,5.941,0.277,8.566,0.277c0.992,0,1.658-0.188,1.658-0.754
		c0-0.387-0.34-0.576-1.102-0.576h-1.102c-1.863,0-4.174-0.854-4.174-2.756c0-1.716,0.545-4.005,1.537-6.386l6.594-16.846
		c0.219-0.477,0.555-0.765,1.102-0.765h23.617c0.547,0,0.766,0.189,0.994,0.575l10.213,23.422c0.666,1.518,0,2.381-0.654,2.568
		c-0.445,0.09-0.773,0.287-0.773,0.664c0,0.576,1.211,0.576,3.303,0.666c7.574,0.188,15.598,0.188,17.242,0.188
		c1.211,0,2.201-0.188,2.201-0.754c0-0.477-0.436-0.576-1.1-0.576c-1.102,0-2.746-0.098-4.395-0.574
		c-2.309-0.566-5.492-2.094-9.449-10.561c-6.703-14.467-23.955-53.783-25.604-57.403c-1.316-2.956-1.754-3.431-2.418-3.431
		c-0.654,0-1.1,0.575-2.41,3.719L363.251,109.914z"/>
</g>
</svg>
