<?xml version="1.0" encoding="utf-8"?>
<!-- Generator: Adobe Illustrator 16.0.4, SVG Export Plug-In . SVG Version: 6.00 Build 0)  -->
<!DOCTYPE svg PUBLIC "-//W3C//DTD SVG 1.1//EN" "http://www.w3.org/Graphics/SVG/1.1/DTD/svg11.dtd">
<svg version="1.1" id="Layer_1" xmlns="http://www.w3.org/2000/svg" xmlns:xlink="http://www.w3.org/1999/xlink" x="0px" y="0px"
	 width="601.739px" height="188.696px" viewBox="0 0 601.739 188.696" enable-background="new 0 0 601.739 188.696"
	 xml:space="preserve">
<g>
	<path fill="#FFFFFF" d="M15.936,161.536l8.245-11.626h5.852l-8.283,11.284l8.169,16.604h-6.003l-5.889-11.551l-2.09,2.85v8.701
		h-5.357V149.91h5.357V161.536z"/>
	<path fill="#FFFFFF" d="M46.486,171.186c-0.494,5.737-4.065,7.067-7.371,7.067c-6.079,0-8.017-4.256-8.017-10.145
		c0-6.535,2.925-10.448,8.396-10.448c4.863,0,7.143,3.343,7.143,9.08c0,0.685-0.038,1.444-0.114,2.204H36.456
		c0,3.191,0.608,5.243,2.926,5.243c1.52,0,2.355-0.912,2.545-3.344L46.486,171.186z M41.433,165.639
		c0.114-2.964-0.76-4.104-2.318-4.104c-1.824,0-2.545,1.406-2.66,4.104H41.433z"/>
	<path fill="#FFFFFF" d="M64.65,177.797h-5.129v-12.614c0-2.241-0.532-3.344-2.127-3.344c-2.508,0-2.85,2.47-2.85,5.51v10.448
		h-5.167v-19.681h4.673l0.152,2.697h0.076c0.57-1.254,1.824-3.153,5.015-3.153c3.686,0,5.357,2.241,5.357,6.953V177.797z"/>
	<path fill="#FFFFFF" d="M66.552,158.117h2.318v-3.838L74,152.835v5.281h4.065v3.761H74v9.081c0,2.508,0.57,3.306,2.279,3.306
		c0.646,0,1.406-0.152,2.052-0.38l0.494,3.761c-0.684,0.267-2.204,0.608-3.875,0.608c-3.609,0-6.079-1.444-6.079-6.459v-9.917
		h-2.318V158.117z"/>
	<path fill="#FFFFFF" d="M98.546,158.762c-0.228-3.609-1.33-4.939-3.495-4.939c-2.052,0-3.04,1.178-3.04,2.888
		c0,2.355,1.862,3.344,4.179,4.256c3.496,1.405,7.903,2.697,7.903,8.586c0,5.928-3.989,8.701-8.891,8.701
		c-5.851,0-8.777-2.812-9.233-8.853l5.509-0.685c0.266,3.572,1.254,5.13,3.875,5.13c2.09,0,3.268-1.064,3.268-3.268
		c0-2.66-2.127-3.647-4.597-4.598c-3.419-1.33-7.523-2.697-7.523-8.473c0-5.243,3.799-8.093,8.853-8.093
		c5.129,0,8.093,2.697,8.397,8.511L98.546,158.762z"/>
	<path fill="#FFFFFF" d="M105.692,158.117h2.318v-3.838l5.129-1.443v5.281h4.065v3.761h-4.065v9.081c0,2.508,0.57,3.306,2.279,3.306
		c0.646,0,1.406-0.152,2.052-0.38l0.494,3.761c-0.684,0.267-2.204,0.608-3.875,0.608c-3.609,0-6.079-1.444-6.079-6.459v-9.917
		h-2.318V158.117z"/>
	<path fill="#FFFFFF" d="M135.177,177.683c-0.912,0.267-1.786,0.38-2.545,0.38c-1.786,0-3.04-0.722-3.496-2.432
		c-0.798,1.482-2.355,2.622-4.863,2.622c-3.989,0-5.319-2.697-5.319-5.472c0-4.977,3.99-5.774,9.499-6.459v-1.178
		c0-2.545-0.608-3.609-2.166-3.609s-1.976,0.912-1.976,2.204c0,0.38,0.038,0.836,0.114,1.292l-4.673,0.342
		c-0.114-0.57-0.152-1.141-0.152-1.672c0-3.458,2.09-6.041,7.143-6.041c6.193,0,6.839,4.293,6.839,8.929v6.61
		c0,0.874,0.152,1.292,0.874,1.292c0.152,0,0.38-0.038,0.608-0.076L135.177,177.683z M128.452,169.552
		c-3.419,0.267-4.369,0.988-4.369,2.888c0,1.178,0.646,2.204,1.938,2.204c1.482,0,2.432-1.368,2.432-3.002V169.552z"/>
	<path fill="#FFFFFF" d="M136.054,158.117h2.318v-3.838l5.129-1.443v5.281h4.065v3.761h-4.065v9.081c0,2.508,0.57,3.306,2.279,3.306
		c0.646,0,1.406-0.152,2.052-0.38l0.494,3.761c-0.684,0.267-2.204,0.608-3.875,0.608c-3.609,0-6.079-1.444-6.079-6.459v-9.917
		h-2.318V158.117z"/>
	<path fill="#FFFFFF" d="M165.007,171.186c-0.494,5.737-4.065,7.067-7.371,7.067c-6.079,0-8.017-4.256-8.017-10.145
		c0-6.535,2.925-10.448,8.396-10.448c4.863,0,7.143,3.343,7.143,9.08c0,0.685-0.038,1.444-0.114,2.204h-10.069
		c0,3.191,0.608,5.243,2.926,5.243c1.52,0,2.355-0.912,2.545-3.344L165.007,171.186z M159.954,165.639
		c0.114-2.964-0.76-4.104-2.318-4.104c-1.824,0-2.545,1.406-2.66,4.104H159.954z"/>
</g>
<g>
	<path fill="#FFFFFF" d="M186.44,168.185l5.206,0.38c-0.38,6.877-3.268,9.688-8.891,9.688c-6.459,0-9.233-4.674-9.233-14.096
		c0-9.955,3.686-14.742,10.183-14.742c5.661,0,8.207,3.8,8.169,10.183l-5.243,0.418c-0.038-4.787-1.178-6.155-3.306-6.155
		c-2.622,0-4.104,2.584-4.104,10.183c0,7.181,1.14,9.841,3.914,9.841C185.491,173.884,186.289,171.833,186.44,168.185z"/>
	<path fill="#FFFFFF" d="M209.924,177.797h-5.167v-12.614c0-2.128-0.456-3.344-2.09-3.344c-2.546,0-2.85,2.432-2.85,5.51v10.448
		h-5.167V149.91h5.167v10.41h0.038c0.684-1.254,2.089-2.659,4.787-2.659c3.609,0,5.281,2.279,5.281,7.028V177.797z"/>
	<path fill="#FFFFFF" d="M227.898,171.186c-0.494,5.737-4.065,7.067-7.371,7.067c-6.079,0-8.017-4.256-8.017-10.145
		c0-6.535,2.925-10.448,8.396-10.448c4.863,0,7.143,3.343,7.143,9.08c0,0.685-0.038,1.444-0.114,2.204h-10.069
		c0,3.191,0.608,5.243,2.926,5.243c1.52,0,2.355-0.912,2.545-3.344L227.898,171.186z M222.845,165.639
		c0.114-2.964-0.76-4.104-2.318-4.104c-1.824,0-2.545,1.406-2.66,4.104H222.845z"/>
	<path fill="#FFFFFF" d="M240.78,165.563c-0.114-2.812-0.988-3.762-2.508-3.762c-1.899,0-2.812,1.672-2.812,6.497
		c0,3.914,0.684,5.852,2.888,5.852c1.444,0,2.204-0.874,2.432-3.495l4.673,0.266c-0.342,5.737-3.837,7.333-7.371,7.333
		c-6.079,0-7.979-4.294-7.979-10.106c0-6.611,2.925-10.486,8.359-10.486c4.939,0,6.915,3.153,6.991,7.599L240.78,165.563z"/>
	<path fill="#FFFFFF" d="M253.055,165.183l5.167-7.066h5.851l-5.661,6.99l6.117,12.69h-5.813l-3.799-8.549l-1.862,2.317v6.231
		h-5.167V149.91h5.167V165.183z"/>
	<path fill="#FFFFFF" d="M271.332,177.797h-5.167V149.91h5.167V177.797z"/>
	<path fill="#FFFFFF" d="M274.753,149.91h5.205v4.901h-5.205V149.91z M274.753,158.117h5.205v19.681h-5.205V158.117z"/>
	<path fill="#FFFFFF" d="M292.002,164.347c-0.113-1.785-0.722-2.85-2.355-2.85c-1.102,0-1.938,0.494-1.938,1.596
		c0,1.444,1.481,1.976,3.229,2.584c2.622,0.912,5.889,1.899,5.889,6.193c0,4.407-3.495,6.383-7.257,6.383
		c-4.483,0-6.99-1.786-7.37-6.193l4.825-0.569c0.228,1.899,0.76,3.039,2.583,3.039c1.406,0,2.09-0.684,2.09-1.861
		c0-1.559-1.558-2.128-3.419-2.773c-2.546-0.874-5.586-1.938-5.586-6.004c0-4.179,3.42-6.23,7.144-6.23
		c4.065,0,6.383,1.899,6.763,6.003L292.002,164.347z"/>
	<path fill="#FFFFFF" d="M297.894,158.117h2.317v-3.838l5.13-1.443v5.281h4.065v3.761h-4.065v9.081c0,2.508,0.569,3.306,2.279,3.306
		c0.646,0,1.406-0.152,2.052-0.38l0.494,3.761c-0.684,0.267-2.204,0.608-3.876,0.608c-3.609,0-6.079-1.444-6.079-6.459v-9.917
		h-2.317V158.117z"/>
	<path fill="#FFFFFF" d="M316.741,158.117h2.317v-1.254c0-5.623,2.774-7.447,6.764-7.447c1.443,0,2.888,0.342,3.495,0.532
		l-0.607,3.837c-0.685-0.228-1.444-0.342-2.09-0.342c-1.634,0-2.432,0.912-2.432,3.42v1.254h4.065v3.799h-4.065v15.882h-5.13
		v-15.882h-2.317V158.117z"/>
	<path fill="#FFFFFF" d="M329.547,167.957c0-6.839,3.344-10.296,8.321-10.296c5.319,0,7.789,3.381,7.789,9.916
		c0,7.144-2.812,10.677-8.245,10.677C331.903,178.253,329.547,174.682,329.547,167.957z M340.3,167.805
		c0-4.142-0.57-6.041-2.584-6.041c-2.09,0-2.85,2.014-2.85,6.154c0,4.294,0.532,6.308,2.736,6.308
		C339.729,174.226,340.3,172.136,340.3,167.805z"/>
	<path fill="#FFFFFF" d="M357.247,165.715c0.228-2.584-0.076-3.838-1.254-3.838c-1.861,0-2.394,2.622-2.394,6.346v9.574h-5.167
		v-19.681h4.673l0.152,2.697h0.076c0.531-1.254,1.823-3.153,4.673-3.153c3.344,0,4.901,2.545,4.293,7.751L357.247,165.715z"/>
</g>
<g>
	<path fill="#EAAD21" d="M383.851,177.797l-7.713-18.808l-0.076,0.038v18.77h-5.016V149.91h6.422l7.332,18.731l0.076-0.038V149.91
		h4.978v27.888H383.851z"/>
	<path fill="#EAAD21" d="M408.587,171.186c-0.493,5.737-4.065,7.067-7.37,7.067c-6.079,0-8.018-4.256-8.018-10.145
		c0-6.535,2.926-10.448,8.397-10.448c4.863,0,7.143,3.343,7.143,9.08c0,0.685-0.038,1.444-0.114,2.204h-10.068
		c0,3.191,0.608,5.243,2.926,5.243c1.52,0,2.355-0.912,2.546-3.344L408.587,171.186z M403.534,165.639
		c0.114-2.964-0.76-4.104-2.317-4.104c-1.824,0-2.546,1.406-2.66,4.104H403.534z"/>
	<path fill="#EAAD21" d="M414.708,177.797l-4.863-19.681h5.623l2.432,14.817h0.114l2.773-14.817h6.192l2.774,14.817h0.151
		l2.318-14.817h5.205l-4.483,19.681H426.6l-2.773-14.476h-0.076l-2.773,14.476H414.708z"/>
	<path fill="#EAAD21" d="M463.079,158.762c-0.229-3.609-1.33-4.939-3.496-4.939c-2.052,0-3.039,1.178-3.039,2.888
		c0,2.355,1.861,3.344,4.18,4.256c3.495,1.405,7.902,2.697,7.902,8.586c0,5.928-3.989,8.701-8.891,8.701
		c-5.852,0-8.776-2.812-9.232-8.853l5.509-0.685c0.267,3.572,1.254,5.13,3.876,5.13c2.089,0,3.268-1.064,3.268-3.268
		c0-2.66-2.128-3.647-4.598-4.598c-3.42-1.33-7.523-2.697-7.523-8.473c0-5.243,3.8-8.093,8.854-8.093
		c5.129,0,8.093,2.697,8.396,8.511L463.079,158.762z"/>
	<path fill="#EAAD21" d="M470.225,158.117h2.317v-3.838l5.13-1.443v5.281h4.065v3.761h-4.065v9.081c0,2.508,0.569,3.306,2.279,3.306
		c0.646,0,1.406-0.152,2.052-0.38l0.494,3.761c-0.684,0.267-2.204,0.608-3.876,0.608c-3.609,0-6.079-1.444-6.079-6.459v-9.917
		h-2.317V158.117z"/>
	<path fill="#EAAD21" d="M484.284,158.117h5.129v12.271c0,2.47,0.456,3.686,2.052,3.686c2.432,0,2.774-2.583,2.774-5.699v-10.258
		h5.167v19.681h-4.521l-0.304-2.812h-0.076c-0.57,1.33-1.786,3.268-4.978,3.268c-3.647,0-5.243-2.28-5.243-7.409V158.117z"/>
	<path fill="#EAAD21" d="M517.874,149.91v27.888h-4.56l-0.38-2.166h-0.076c-0.607,1.368-2.204,2.622-4.407,2.622
		c-3.913,0-6.27-2.584-6.27-9.803c0-7.371,2.356-10.79,6.611-10.79c2.09,0,3.191,0.949,3.876,2.09h0.037v-9.841H517.874z
		 M510.274,161.536c-1.861,0-2.697,1.672-2.697,6.839c0,4.825,0.874,6.041,2.584,6.041c2.165,0,2.697-2.659,2.697-6.383
		C512.858,163.398,512.175,161.536,510.274,161.536z"/>
	<path fill="#EAAD21" d="M535.923,171.186c-0.493,5.737-4.065,7.067-7.37,7.067c-6.079,0-8.018-4.256-8.018-10.145
		c0-6.535,2.926-10.448,8.397-10.448c4.863,0,7.143,3.343,7.143,9.08c0,0.685-0.038,1.444-0.114,2.204h-10.068
		c0,3.191,0.608,5.243,2.926,5.243c1.52,0,2.355-0.912,2.546-3.344L535.923,171.186z M530.87,165.639
		c0.114-2.964-0.76-4.104-2.317-4.104c-1.824,0-2.546,1.406-2.66,4.104H530.87z"/>
	<path fill="#EAAD21" d="M554.087,177.797h-5.129v-12.614c0-2.241-0.532-3.344-2.128-3.344c-2.508,0-2.85,2.47-2.85,5.51v10.448
		h-5.167v-19.681h4.673l0.152,2.697h0.076c0.569-1.254,1.823-3.153,5.015-3.153c3.686,0,5.357,2.241,5.357,6.953V177.797z"/>
	<path fill="#EAAD21" d="M555.989,158.117h2.317v-3.838l5.13-1.443v5.281h4.065v3.761h-4.065v9.081c0,2.508,0.569,3.306,2.279,3.306
		c0.646,0,1.406-0.152,2.052-0.38l0.494,3.761c-0.684,0.267-2.204,0.608-3.876,0.608c-3.609,0-6.079-1.444-6.079-6.459v-9.917
		h-2.317V158.117z"/>
	<path fill="#EAAD21" d="M578.863,164.347c-0.113-1.785-0.722-2.85-2.355-2.85c-1.102,0-1.938,0.494-1.938,1.596
		c0,1.444,1.481,1.976,3.229,2.584c2.622,0.912,5.889,1.899,5.889,6.193c0,4.407-3.495,6.383-7.257,6.383
		c-4.483,0-6.99-1.786-7.37-6.193l4.825-0.569c0.228,1.899,0.76,3.039,2.583,3.039c1.406,0,2.09-0.684,2.09-1.861
		c0-1.559-1.558-2.128-3.419-2.773c-2.546-0.874-5.586-1.938-5.586-6.004c0-4.179,3.42-6.23,7.144-6.23
		c4.065,0,6.383,1.899,6.763,6.003L578.863,164.347z"/>
</g>
<g>
	<path fill="#FFFFFF" d="M313.276,100.76h13.92l-2.017,13.631h-14.015L313.276,100.76z M336.603,100.76h14.016l-2.112,13.631
		h-14.015L336.603,100.76z M359.929,100.76h14.016l-2.111,13.631h-14.016L359.929,100.76z"/>
</g>
<g>
	<defs>
		<path id="SVGID_1_" d="M115.254,8.822h66.014c4.14,0,7.493,3.354,7.493,7.494v89.221c0,4.131-3.359,7.493-7.493,7.493h-66.014
			c-4.14,0-7.493-3.354-7.493-7.493V16.316C107.761,12.184,111.12,8.822,115.254,8.822z M115.254,7.822
			c-4.687,0-8.493,3.811-8.493,8.494v89.221c0,4.691,3.801,8.493,8.493,8.493h66.014c4.687,0,8.493-3.811,8.493-8.493V16.316
			c0-4.692-3.801-8.494-8.493-8.494H115.254z M86.761-12.178h123V134.03h-123V-12.178z"/>
	</defs>
	<clipPath id="SVGID_2_">
		<use xlink:href="#SVGID_1_"  overflow="visible"/>
	</clipPath>
	<g clip-path="url(#SVGID_2_)">
		<defs>
			<path id="SVGID_3_" d="M115.254,8.322c-4.415,0-7.993,3.591-7.993,7.994v89.221c0,4.414,3.576,7.993,7.993,7.993h66.014
				c4.415,0,7.993-3.591,7.993-7.993V16.316c0-4.415-3.576-7.994-7.993-7.994H115.254z"/>
		</defs>
		<clipPath id="SVGID_4_">
			<use xlink:href="#SVGID_3_"  overflow="visible"/>
		</clipPath>
		<path clip-path="url(#SVGID_4_)" fill-rule="evenodd" clip-rule="evenodd" fill="#EAAD21" d="M115.254,8.322
			c-4.415,0-7.993,3.591-7.993,7.994v89.221c0,4.414,3.576,7.993,7.993,7.993h66.014c4.415,0,7.993-3.591,7.993-7.993V16.316
			c0-4.415-3.576-7.994-7.993-7.994H115.254z"/>
	</g>
</g>
<g>
	<defs>
		<path id="SVGID_5_" d="M115.254,8.322c-4.415,0-7.993,3.591-7.993,7.994v89.221c0,4.414,3.576,7.993,7.993,7.993h66.014
			c4.415,0,7.993-3.591,7.993-7.993V16.316c0-4.415-3.576-7.994-7.993-7.994H115.254z"/>
	</defs>
	<clipPath id="SVGID_6_">
		<use xlink:href="#SVGID_5_"  overflow="visible"/>
	</clipPath>
	<path clip-path="url(#SVGID_6_)" fill="none" stroke="#FFFFFF" stroke-width="2" stroke-miterlimit="10" d="M115.254,8.322
		c-4.415,0-7.993,3.591-7.993,7.994v89.22c0,4.415,3.576,7.994,7.993,7.994h66.014c4.415,0,7.993-3.591,7.993-7.994v-89.22
		c0-4.415-3.576-7.994-7.993-7.994H115.254z"/>
</g>
<g>
	<path fill="#FFFFFF" d="M125.004,87.553c0-23.723,31.507-26.873,31.507-41.052c0-6.208-4.448-9.359-10.008-9.359
		c-7.691,0-12.417,8.248-12.417,8.248l-8.34-5.746c0,0,6.023-13.158,21.776-13.158c11.583,0,21.499,7.043,21.499,19.46
		c0,20.387-30.58,24.186-30.858,37.715h22.704v-8.34h10.378v18.07h-45.592C125.283,91.26,125.004,89.407,125.004,87.553z"/>
</g>
<g>
	<defs>
		<path id="SVGID_7_" d="M17.254,8.822h66.014c4.14,0,7.493,3.354,7.493,7.494v89.221c0,4.131-3.359,7.493-7.493,7.493H17.254
			c-4.14,0-7.493-3.354-7.493-7.493V16.316C9.761,12.184,13.12,8.822,17.254,8.822z M17.254,7.822c-4.687,0-8.493,3.811-8.493,8.494
			v89.221c0,4.691,3.801,8.493,8.493,8.493h66.014c4.687,0,8.493-3.811,8.493-8.493V16.316c0-4.692-3.801-8.494-8.493-8.494H17.254z
			 M-11.239-12.178h123V134.03h-123V-12.178z"/>
	</defs>
	<clipPath id="SVGID_8_">
		<use xlink:href="#SVGID_7_"  overflow="visible"/>
	</clipPath>
	<g clip-path="url(#SVGID_8_)">
		<defs>
			<path id="SVGID_9_" d="M17.254,8.322c-4.415,0-7.993,3.591-7.993,7.994v89.221c0,4.414,3.576,7.993,7.993,7.993h66.014
				c4.415,0,7.993-3.591,7.993-7.993V16.316c0-4.415-3.576-7.994-7.993-7.994H17.254z"/>
		</defs>
		<clipPath id="SVGID_10_">
			<use xlink:href="#SVGID_9_"  overflow="visible"/>
		</clipPath>
		<path clip-path="url(#SVGID_10_)" fill-rule="evenodd" clip-rule="evenodd" fill="#EAAD21" d="M17.254,8.322
			c-4.415,0-7.993,3.591-7.993,7.994v89.221c0,4.414,3.576,7.993,7.993,7.993h66.014c4.415,0,7.993-3.591,7.993-7.993V16.316
			c0-4.415-3.576-7.994-7.993-7.994H17.254z"/>
	</g>
</g>
<g>
	<defs>
		<path id="SVGID_11_" d="M17.254,8.322c-4.415,0-7.993,3.591-7.993,7.994v89.221c0,4.414,3.576,7.993,7.993,7.993h66.014
			c4.415,0,7.993-3.591,7.993-7.993V16.316c0-4.415-3.576-7.994-7.993-7.994H17.254z"/>
	</defs>
	<clipPath id="SVGID_12_">
		<use xlink:href="#SVGID_11_"  overflow="visible"/>
	</clipPath>
	<path clip-path="url(#SVGID_12_)" fill="none" stroke="#FFFFFF" stroke-width="2" stroke-miterlimit="10" d="M17.254,8.322
		c-4.415,0-7.993,3.591-7.993,7.994v89.22c0,4.415,3.576,7.994,7.993,7.994h66.014c4.415,0,7.993-3.591,7.993-7.994v-89.22
		c0-4.415-3.576-7.994-7.993-7.994H17.254z"/>
</g>
<g>
	<path fill="#FFFFFF" d="M30.561,83.661h14.363V46.594c0-2.224,0.093-4.448,0.093-4.448h-0.186c0,0-0.741,1.576-2.873,3.707
		l-5.282,5.004l-7.043-7.413l16.495-15.846H56.6v56.062h14.178v9.73H30.561V83.661z"/>
</g>
<g>
	<defs>
		<path id="SVGID_13_" d="M213.254,8.822h66.014c4.14,0,7.493,3.354,7.493,7.494v89.221c0,4.131-3.359,7.493-7.493,7.493h-66.014
			c-4.14,0-7.493-3.354-7.493-7.493V16.316C205.761,12.184,209.12,8.822,213.254,8.822z M213.254,7.822
			c-4.687,0-8.493,3.811-8.493,8.494v89.221c0,4.691,3.801,8.493,8.493,8.493h66.014c4.687,0,8.493-3.811,8.493-8.493V16.316
			c0-4.692-3.801-8.494-8.493-8.494H213.254z M184.761-12.178h123V134.03h-123V-12.178z"/>
	</defs>
	<clipPath id="SVGID_14_">
		<use xlink:href="#SVGID_13_"  overflow="visible"/>
	</clipPath>
	<g clip-path="url(#SVGID_14_)">
		<defs>
			<path id="SVGID_15_" d="M213.254,8.322c-4.415,0-7.993,3.591-7.993,7.994v89.221c0,4.414,3.576,7.993,7.993,7.993h66.014
				c4.415,0,7.993-3.591,7.993-7.993V16.316c0-4.415-3.576-7.994-7.993-7.994H213.254z"/>
		</defs>
		<clipPath id="SVGID_16_">
			<use xlink:href="#SVGID_15_"  overflow="visible"/>
		</clipPath>
		<path clip-path="url(#SVGID_16_)" fill-rule="evenodd" clip-rule="evenodd" fill="#EAAD21" d="M213.254,8.322
			c-4.415,0-7.993,3.591-7.993,7.994v89.221c0,4.414,3.576,7.993,7.993,7.993h66.014c4.415,0,7.993-3.591,7.993-7.993V16.316
			c0-4.415-3.576-7.994-7.993-7.994H213.254z"/>
	</g>
</g>
<g>
	<defs>
		<path id="SVGID_17_" d="M213.254,8.322c-4.415,0-7.993,3.591-7.993,7.994v89.221c0,4.414,3.576,7.993,7.993,7.993h66.014
			c4.415,0,7.993-3.591,7.993-7.993V16.316c0-4.415-3.576-7.994-7.993-7.994H213.254z"/>
	</defs>
	<clipPath id="SVGID_18_">
		<use xlink:href="#SVGID_17_"  overflow="visible"/>
	</clipPath>
	<path clip-path="url(#SVGID_18_)" fill="none" stroke="#FFFFFF" stroke-width="2" stroke-miterlimit="10" d="M213.254,8.322
		c-4.415,0-7.993,3.591-7.993,7.994v89.22c0,4.415,3.576,7.994,7.993,7.994h66.014c4.414,0,7.993-3.591,7.993-7.994v-89.22
		c0-4.415-3.576-7.994-7.993-7.994H213.254z"/>
</g>
<g>
	<path fill="#FFFFFF" d="M225.742,27.598h41.515v8.433l-15.475,18.348c8.433,1.298,16.958,7.229,16.958,18.533
		c0,11.213-8.433,21.592-23.445,21.592c-13.9,0-21.777-8.804-21.777-8.804l5.931-8.525c0,0,6.394,6.672,15.105,6.672
		c6.857,0,11.861-4.447,11.861-10.471c0-6.487-5.375-10.379-12.881-10.379c-1.482,0-2.873,0.186-3.614,0.186l-2.688-5.838
		l14.271-17.422c1.205-1.39,2.78-2.688,2.78-2.688v-0.186c0,0-2.131,0.278-3.707,0.278h-14.456v7.784h-10.379V27.598z"/>
</g>
<g>
	<path fill="#FFFFFF" d="M432.101,62.572h32.48l-8.26,52.499H443.44l-0.84-10.5c-5.88,7.28-13.3,10.5-21.14,10.5
		c-18.2,0-26.46-11.34-26.46-32.76c0-30.659,9.38-73.499,46.34-73.499c18.34,0,26.18,10.22,26.18,26.88c0,3.22-0.42,6.72-0.98,10.64
		l-19.6,1.54c0.7-4.48,0.98-7.98,0.98-10.78c0-9.1-3.5-11.76-9.1-11.76c-11.341,0-18.761,14.84-21.561,33.88
		c-1.12,7.42-2.1,15.12-2.1,23.1c0,11.9,4.06,16.66,11.479,16.66c7.56,0,14.28-5.46,16.521-18.62l0.42-2.52h-14L432.101,62.572z"/>
	<path fill="#FFFFFF" d="M474.94,81.332c0-6.021,0.561-12.74,1.68-20.021c5.18-32.34,18.62-52.499,44.939-52.499
		c20.16,0,28.281,11.899,28.281,32.899c0,5.6-0.561,11.76-1.541,18.479c-4.76,34.16-16.52,54.88-43.539,54.88
		C483.9,115.071,474.94,103.311,474.94,81.332z M527.44,60.891c1.26-8.26,1.96-14.84,1.96-19.88c0-10.92-3.08-15.68-10.36-15.68
		c-12.18,0-17.92,12.74-21.56,35.56c-1.54,9.101-2.101,16.8-2.101,22.26c0,10.92,3.36,15.681,11.061,15.681
		C518.9,98.832,523.94,84.551,527.44,60.891z"/>
</g>
<g>
	<path fill="#EAAD21" d="M558.241,93.511h20.439l-3.08,19.88h-20.439L558.241,93.511z M570.7,10.631h21.7l-13.579,74.06h-17.92
		L570.7,10.631z"/>
</g>
</svg>
